<?xml version="1.0" encoding="UTF-8" standalone="no"?><svg xmlns="http://www.w3.org/2000/svg" xmlns:xlink="http://www.w3.org/1999/xlink" contentScriptType="application/ecmascript" contentStyleType="text/css" height="551.8876px" preserveAspectRatio="none" style="width:2029px;height:551px;" version="1.1" viewBox="0 0 2029 551" width="2029.6909px" zoomAndPan="magnify"><defs><filter height="300%" id="f1235s7m7wbusr" width="300%" x="-1" y="-1"><feGaussianBlur result="blurOut" stdDeviation="5.231162196679438"/><feColorMatrix in="blurOut" result="blurOut2" type="matrix" values="0 0 0 0 0 0 0 0 0 0 0 0 0 0 0 0 0 0 .4 0"/><feOffset dx="10.462324393358877" dy="10.462324393358877" in="blurOut2" result="blurOut3"/><feBlend in="SourceGraphic" in2="blurOut3" mode="normal"/></filter></defs><g><!--MD5=[0498335dee95ae074698544c519367ab]
class MoneyTransferService--><rect fill="#F8F8F8" filter="url(#f1235s7m7wbusr)" height="261.0881" id="MoneyTransferService" style="stroke: #383838; stroke-width: 3.923371647509579;" width="554.5032" x="761.1341" y="20.9246"/><ellipse cx="863.9264" cy="62.7739" fill="#B1B1B1" rx="28.7714" ry="28.7714" style="stroke: #383838; stroke-width: 2.615581098339719;"/><path d="M854.5829,53.0051 L854.5829,47.3602 L873.8843,47.3602 L873.8843,53.0051 L867.436,53.0051 L867.436,74.1303 L873.8843,74.1303 L873.8843,79.7752 L854.5829,79.7752 L854.5829,74.1303 L861.0312,74.1303 L861.0312,53.0051 Z "/><text fill="#000000" font-family="sans-serif" font-size="31.387" font-style="italic" lengthAdjust="spacingAndGlyphs" textLength="329.5632" x="914.6687" y="74.636">MoneyTransferService</text><line style="stroke: #383838; stroke-width: 3.923371647509579;" x1="763.7497" x2="1313.0217" y1="104.6232" y2="104.6232"/><ellipse cx="789.9055" cy="133.3946" fill="none" rx="7.8467" ry="7.8467" style="stroke: #545454; stroke-width: 2.615581098339719;"/><text fill="#000000" font-family="sans-serif" font-size="28.7714" lengthAdjust="spacingAndGlyphs" textLength="277.2516" x="813.4457" y="142.9017">string transactionId</text><line style="stroke: #383838; stroke-width: 3.923371647509579;" x1="763.7497" x2="1313.0217" y1="159.433" y2="159.433"/><ellipse cx="789.9055" cy="188.2043" fill="#A6A6A6" rx="7.8467" ry="7.8467" style="stroke: #545454; stroke-width: 2.615581098339719;"/><text fill="#000000" font-family="sans-serif" font-size="28.7714" lengthAdjust="spacingAndGlyphs" textLength="444.6488" x="813.4457" y="197.7114">debitAccount(acctInfo, amount)</text><ellipse cx="789.9055" cy="222.0894" fill="#A6A6A6" rx="7.8467" ry="7.8467" style="stroke: #545454; stroke-width: 2.615581098339719;"/><text fill="#000000" font-family="sans-serif" font-size="28.7714" lengthAdjust="spacingAndGlyphs" textLength="470.8046" x="813.4457" y="231.5964">creditAccount(accctInfo, amount)</text><ellipse cx="789.9055" cy="255.9745" fill="#A6A6A6" rx="7.8467" ry="7.8467" style="stroke: #545454; stroke-width: 2.615581098339719;"/><text fill="#000000" font-family="sans-serif" font-size="28.7714" lengthAdjust="spacingAndGlyphs" textLength="486.4981" x="813.4457" y="265.4815">rollbackTransaction(transactionId)</text><!--MD5=[1deac4703a4d7557d04c8bb3e932890f]
class CreditCardTransferService--><rect fill="#F8F8F8" filter="url(#f1235s7m7wbusr)" height="83.6986" id="CreditCardTransferService" style="stroke: #383838; stroke-width: 3.923371647509579;" width="481.2669" x="15.6935" y="439.4176"/><ellipse cx="54.9272" cy="481.2669" fill="#C2C2C2" rx="28.7714" ry="28.7714" style="stroke: #383838; stroke-width: 2.615581098339719;"/><path d="M61.3959,497.3346 Q59.8761,498.1162 58.2043,498.507 Q56.5326,498.8978 54.6871,498.8978 Q48.1303,498.8978 44.6782,494.5773 Q41.2261,490.2567 41.2261,482.0932 Q41.2261,473.908 44.6782,469.5875 Q48.1303,465.2669 54.6871,465.2669 Q56.5326,465.2669 58.2261,465.6577 Q59.9195,466.0485 61.3959,466.8301 L61.3959,473.9515 Q59.7458,472.4317 58.1935,471.7261 Q56.6411,471.0204 54.9911,471.0204 Q51.4738,471.0204 49.6826,473.8103 Q47.8914,476.6003 47.8914,482.0932 Q47.8914,487.5645 49.6826,490.3544 Q51.4738,493.1443 54.9911,493.1443 Q56.6411,493.1443 58.1935,492.4387 Q59.7458,491.7331 61.3959,490.2133 Z "/><text fill="#000000" font-family="sans-serif" font-size="31.387" lengthAdjust="spacingAndGlyphs" textLength="397.5683" x="91.5453" y="493.129">CreditCardTransferService</text><!--MD5=[5f43b7b62dd3c33ca24c8211cf66aa23]
class WireTransferService--><rect fill="#F8F8F8" filter="url(#f1235s7m7wbusr)" height="83.6986" id="WireTransferService" style="stroke: #383838; stroke-width: 3.923371647509579;" width="381.8748" x="588.5057" y="439.4176"/><ellipse cx="627.7395" cy="481.2669" fill="#C2C2C2" rx="28.7714" ry="28.7714" style="stroke: #383838; stroke-width: 2.615581098339719;"/><path d="M634.2082,497.3346 Q632.6884,498.1162 631.0166,498.507 Q629.3448,498.8978 627.4994,498.8978 Q620.9425,498.8978 617.4904,494.5773 Q614.0383,490.2567 614.0383,482.0932 Q614.0383,473.908 617.4904,469.5875 Q620.9425,465.2669 627.4994,465.2669 Q629.3448,465.2669 631.0383,465.6577 Q632.7318,466.0485 634.2082,466.8301 L634.2082,473.9515 Q632.5581,472.4317 631.0057,471.7261 Q629.4534,471.0204 627.8033,471.0204 Q624.2861,471.0204 622.4949,473.8103 Q620.7037,476.6003 620.7037,482.0932 Q620.7037,487.5645 622.4949,490.3544 Q624.2861,493.1443 627.8033,493.1443 Q629.4534,493.1443 631.0057,492.4387 Q632.5581,491.7331 634.2082,490.2133 Z "/><text fill="#000000" font-family="sans-serif" font-size="31.387" lengthAdjust="spacingAndGlyphs" textLength="298.1762" x="664.3576" y="493.129">WireTransferService</text><!--MD5=[4c9ff0f9a5999a9d55e79e906dfd4388]
class DebitCardTransferService--><rect fill="#F8F8F8" filter="url(#f1235s7m7wbusr)" height="83.6986" id="DebitCardTransferService" style="stroke: #383838; stroke-width: 3.923371647509579;" width="470.8046" x="1061.9259" y="439.4176"/><ellipse cx="1101.1596" cy="481.2669" fill="#C2C2C2" rx="28.7714" ry="28.7714" style="stroke: #383838; stroke-width: 2.615581098339719;"/><path d="M1107.6284,497.3346 Q1106.1086,498.1162 1104.4368,498.507 Q1102.765,498.8978 1100.9195,498.8978 Q1094.3627,498.8978 1090.9106,494.5773 Q1087.4585,490.2567 1087.4585,482.0932 Q1087.4585,473.908 1090.9106,469.5875 Q1094.3627,465.2669 1100.9195,465.2669 Q1102.765,465.2669 1104.4585,465.6577 Q1106.152,466.0485 1107.6284,466.8301 L1107.6284,473.9515 Q1105.9783,472.4317 1104.4259,471.7261 Q1102.8736,471.0204 1101.2235,471.0204 Q1097.7063,471.0204 1095.9151,473.8103 Q1094.1239,476.6003 1094.1239,482.0932 Q1094.1239,487.5645 1095.9151,490.3544 Q1097.7063,493.1443 1101.2235,493.1443 Q1102.8736,493.1443 1104.4259,492.4387 Q1105.9783,491.7331 1107.6284,490.2133 Z "/><text fill="#000000" font-family="sans-serif" font-size="31.387" lengthAdjust="spacingAndGlyphs" textLength="387.106" x="1137.7778" y="493.129">DebitCardTransferService</text><!--MD5=[e94e40a383c4c3ffc9db60bfbb1deb3b]
class CashDepositService--><rect fill="#F8F8F8" filter="url(#f1235s7m7wbusr)" height="83.6986" id="CashDepositService" style="stroke: #383838; stroke-width: 3.923371647509579;" width="376.6437" x="1624.2759" y="439.4176"/><ellipse cx="1663.5096" cy="481.2669" fill="#C2C2C2" rx="28.7714" ry="28.7714" style="stroke: #383838; stroke-width: 2.615581098339719;"/><path d="M1669.9783,497.3346 Q1668.4585,498.1162 1666.7867,498.507 Q1665.1149,498.8978 1663.2695,498.8978 Q1656.7126,498.8978 1653.2605,494.5773 Q1649.8084,490.2567 1649.8084,482.0932 Q1649.8084,473.908 1653.2605,469.5875 Q1656.7126,465.2669 1663.2695,465.2669 Q1665.1149,465.2669 1666.8084,465.6577 Q1668.5019,466.0485 1669.9783,466.8301 L1669.9783,473.9515 Q1668.3282,472.4317 1666.7759,471.7261 Q1665.2235,471.0204 1663.5734,471.0204 Q1660.0562,471.0204 1658.265,473.8103 Q1656.4738,476.6003 1656.4738,482.0932 Q1656.4738,487.5645 1658.265,490.3544 Q1660.0562,493.1443 1663.5734,493.1443 Q1665.2235,493.1443 1666.7759,492.4387 Q1668.3282,491.7331 1669.9783,490.2133 Z "/><text fill="#000000" font-family="sans-serif" font-size="31.387" lengthAdjust="spacingAndGlyphs" textLength="292.9451" x="1700.1277" y="493.129">CashDepositService</text><!--MD5=[7d38246016ec70ee163fb57ef1519db4]
reverse link MoneyTransferService to CreditCardTransferService--><path d="M712.092,289.6233 C581.8883,343.635 441.824,401.7271 351.848,439.0253 " fill="none" id="MoneyTransferService&lt;-CreditCardTransferService" style="stroke: #383838; stroke-width: 2.615581098339719; stroke-dasharray: 7.0,7.0;"/><polygon fill="none" points="705.1345,272.7005,760.454,269.5879,719.154,306.5199,705.1345,272.7005" style="stroke: #383838; stroke-width: 2.615581098339719;"/><!--MD5=[d7b2d8ee8df74966c1086b58d84ce0c3]
reverse link MoneyTransferService to WireTransferService--><path d="M903.1078,323.7566 C868.6083,366.966 834.6581,409.4954 811.0917,439.0253 " fill="none" id="MoneyTransferService&lt;-WireTransferService" style="stroke: #383838; stroke-width: 2.615581098339719; stroke-dasharray: 7.0,7.0;"/><polygon fill="none" points="889.0883,311.9604,936.038,282.5089,917.7028,334.8205,889.0883,311.9604" style="stroke: #383838; stroke-width: 2.615581098339719;"/><!--MD5=[e26e0ba17cd931d0ff0fac15c55c7a69]
reverse link MoneyTransferService to DebitCardTransferService--><path d="M1173.6636,323.7566 C1208.1631,366.966 1242.1133,409.4954 1265.6797,439.0253 " fill="none" id="MoneyTransferService&lt;-DebitCardTransferService" style="stroke: #383838; stroke-width: 2.615581098339719; stroke-dasharray: 7.0,7.0;"/><polygon fill="none" points="1159.0686,334.8205,1140.7334,282.5089,1187.6831,311.9604,1159.0686,334.8205" style="stroke: #383838; stroke-width: 2.615581098339719;"/><!--MD5=[b62bd71abd4b20fc4f0050aee6456233]
reverse link MoneyTransferService to CashDepositService--><path d="M1364.3133,290.8526 C1492.6598,344.629 1630.2132,402.2502 1718.5937,439.2607 " fill="none" id="MoneyTransferService&lt;-CashDepositService" style="stroke: #383838; stroke-width: 2.615581098339719; stroke-dasharray: 7.0,7.0;"/><polygon fill="none" points="1356.885,307.5923,1315.7158,270.5034,1371.0353,273.8252,1356.885,307.5923" style="stroke: #383838; stroke-width: 2.615581098339719;"/><!--MD5=[072e158816fd3471e2a071b5bba00484]
@startuml

hide empty description
skinparam monochrome true
scale 2048 width

interface MoneyTransferService {
  +string transactionId
  +debitAccount(acctInfo, amount)
  +creditAccount(accctInfo, amount)
  +rollbackTransaction(transactionId)
}

MoneyTransferService <|.. CreditCardTransferService
MoneyTransferService <|.. WireTransferService
MoneyTransferService <|.. DebitCardTransferService
MoneyTransferService <|.. CashDepositService

hide CreditCardTransferService fields
hide CreditCardTransferService methods
hide WireTransferService fields
hide WireTransferService methods
hide DebitCardTransferService fields
hide DebitCardTransferService methods
hide CashDepositService fields
hide CashDepositService methods

@enduml

PlantUML version 1.2019.11(Sun Sep 22 12:02:15 CEST 2019)
(GPL source distribution)
Java Runtime: Java(TM) SE Runtime Environment
JVM: Java HotSpot(TM) 64-Bit Server VM
Java Version: 11.0.4+10-LTS
Operating System: Mac OS X
Default Encoding: UTF-8
Language: en
Country: US
--></g></svg>