<?xml version="1.0" encoding="iso-8859-1"?>
<svg version="1.1" id="Layer_1" xmlns="http://www.w3.org/2000/svg" xmlns:xlink="http://www.w3.org/1999/xlink" viewBox="0 0 497.116 234.302">
<path style="fill:none;stroke:#555555;stroke-width:3;" d="M75.981,20.467L54.22,30.139L32.458,49.482l-9.672,17.531L5.256,109.327
	l17.527,61.921l18,5.333l19.481-35.82L42.13,79.103l10.881-13.904L71.146,46.46l50.778,9.067l6.045,16.322l-7.852,21.066l-60,48.667
	l7.402,8.247l-21.157,42.313l-18.739-7.254l18.134,17.531l30.83,15.112l47.15,3.022l3.63-13.973l-7.861-15.042l110.622,4.23
	l6.65,15.112l16.321,16.321l77.375-3.628l21.157-15.111l1.209-14.507l-42.919-35.062l-4.232-10.881h-17.529l-61.054-51.987
	l11.485-18.135l70.726,59.241l43.523-42.315l78.585-10.881l51.382,42.919l-48.964,58.636l0.604,13.3l-5.44,13.298l32.643-8.462
	l18.134-28.413l10.882-33.851l1.813-15.113l-0.612-12.171l-57.419-50.696l-82.816,10.881l-27.807-19.344
	c0,0,107.601-9.672,105.787-9.672c-1.814,0,18.738-10.88,18.738-10.88l-21.761-15.718L358.28,8.981l-60.449-3.022L182.373,8.981
	L75.981,20.467z"/>
<polyline style="fill:none;stroke:#555555;stroke-width:3;" points="128.067,73.577 238.775,77.709 257.17,57.44 327.853,54.406 "/>
<line style="fill:none;stroke:#555555;stroke-width:3;" x1="121.923" y1="55.527" x2="257.33" y2="57.945"/>
<line style="fill:none;stroke:#555555;stroke-width:3;" x1="118.9" y1="93.006" x2="227.105" y2="96.028"/>
<line style="fill:none;stroke:#555555;stroke-width:3;" x1="67.519" y1="149.829" x2="119.505" y2="191.54"/>
<polyline style="fill:none;stroke:#555555;stroke-width:3;" points="32.458,49.482 52.866,65.332 71.616,132.082 "/>
<polyline style="fill:none;stroke:#555555;stroke-width:3;" points="41.116,176.582 46.616,191.582 76.586,217.532 "/>
<line style="fill:none;stroke:#555555;stroke-width:3;" x1="21.578" y1="168.568" x2="27.783" y2="185.249"/>
<polyline style="fill:none;stroke:#555555;stroke-width:3;" points="127.116,206.582 236.777,210.882 309.921,158.896 "/>
<line style="fill:none;stroke:#555555;stroke-width:3;" x1="229.783" y1="195.582" x2="288.159" y2="148.015"/>
<line style="fill:none;stroke:#555555;stroke-width:3;" x1="309.116" y1="137.082" x2="305.688" y2="148.015"/>
<polyline style="fill:none;stroke:#555555;stroke-width:3;" points="429.611,45.251 434.447,63.386 431.425,83.938 "/>
<polyline style="fill:none;stroke:#555555;stroke-width:3;" points="491.873,114.163 481.597,68.222 472.529,50.087 448.35,34.371
	"/>
<path style="fill:none;stroke:#555555;stroke-width:3;" d="M445.327,33.161"/>
<line style="fill:none;stroke:#555555;stroke-width:3;" x1="351.631" y1="74.267" x2="352.84" y2="94.819"/>
<line style="fill:none;stroke:#555555;stroke-width:3;" x1="22.787" y1="67.013" x2="42.13" y2="79.103"/>
<line style="fill:none;stroke:#555555;stroke-width:3;" x1="123.736" y1="220.554" x2="253.099" y2="227.204"/>
<line style="fill:none;stroke:#555555;stroke-width:3;" x1="330.474" y1="223.576" x2="429.45" y2="212.249"/>
<polyline style="fill:none;stroke:#555555;stroke-width:3;" points="352.116,207.582 434.447,198.793 490.783,139.582 "/>
<line style="fill:none;stroke:#555555;stroke-width:3;" x1="352.235" y1="193.352" x2="433.237" y2="186.098"/>
<line style="fill:none;stroke:#555555;stroke-width:3;" x1="482.807" y1="126.858" x2="492.479" y2="126.252"/>
<line style="fill:none;stroke:#555555;stroke-width:3;" x1="71.146" y1="46.46" x2="54.22" y2="30.139"/>
</svg>
