<svg version="1.1" id="Layer_1" xmlns="http://www.w3.org/2000/svg" xmlns:xlink="http://www.w3.org/1999/xlink" viewBox="0 0 454.651 500">
<g id="Back">
	<polyline style="fill:none;stroke:#444444;stroke-width:3;stroke-dasharray:11,5;" points="154.664,57.285 159.105,266.598
		86.561,355.627 138.498,412.578 237.044,296.604 206.549,259.953 206.353,21.446 	"/>
	<line style="fill:none;stroke:#444444;stroke-width:3;stroke-dasharray:11,5;" x1="159.105" y1="266.598" x2="206.549" y2="259.953"/>
	<line style="fill:none;stroke:#444444;stroke-width:3;stroke-dasharray:11,5;" x1="4.639" y1="375.371" x2="86.561" y2="355.627"/>
	<line style="fill:none;stroke:#444444;stroke-width:3;stroke-dasharray:11,5;" x1="115.286" y1="493.75" x2="138.498" y2="412.578"/>
	<line style="fill:none;stroke:#444444;stroke-width:3;stroke-dasharray:11,5;" x1="449.229" y1="270.416" x2="237.044" y2="296.604"/>
</g>
<g id="Front">
	<path style="fill:none;stroke:#444444;stroke-width:3;" d="M337.99,7.553c-0.655,1.857-131.627,13.271-131.627,13.271
		l-51.066,35.848L5.893,232.165l-0.02,143.849l108.189,116.471l135.374-13.83l-3.375-234.825l-29.917-34.149l99.824-117.821
		l54.438,56.373l-72.502,86.538l4.52,204.957l146.183-169.32l-3.073-145.15L337.99,7.553z"/>
	<line style="fill:none;stroke:#444444;stroke-width:3;" x1="5.893" y1="232.165" x2="216.145" y2="209.68"/>
	<path style="fill:none;stroke:#444444;stroke-width:3;" d="M337.99,7.553c-1.89,1.212-22.021,84.306-22.021,84.306"/>
	<line style="fill:none;stroke:#444444;stroke-width:3;" x1="370.407" y1="148.232" x2="445.534" y2="125.256"/>
	<line style="fill:none;stroke:#444444;stroke-width:3;" x1="246.062" y1="243.83" x2="297.905" y2="234.77"/>
	<line style="fill:none;stroke:#444444;stroke-width:3;" x1="249.437" y1="478.654" x2="302.425" y2="439.727"/>
</g>
</svg>
