<?xml version="1.0" encoding="iso-8859-1"?>
<svg version="1.1" id="Layer_1" xmlns="http://www.w3.org/2000/svg" xmlns:xlink="http://www.w3.org/1999/xlink" viewBox="0 0 500 319.76">
<polygon style="fill:none;stroke:#555555;stroke-width:3;" points="286.898,4.456 218.311,16.001 119.841,66.933 56.007,145.707 29.522,162.687
	11.865,157.252 7.112,166.762 6.434,183.737 11.187,191.209 28.163,198.673 32.238,189.848 30.881,177.625 66.872,181.7
	67.552,194.6 74.344,205.47 57.366,220.407 119.165,274.053 225.78,313.442 316.101,314.123 396.912,278.127 381.974,275.415
	402.346,227.88 369.069,207.507 376.539,198.673 376.539,184.413 364.995,172.874 397.592,151.141 436.301,170.836 426.113,181.023
	427.471,196.636 437.657,204.786 476.365,200.711 479.764,209.544 496.062,189.848 495.381,180.338 482.477,183.737
	483.157,171.513 496.062,166.079 493.345,152.499 477.726,139.595 383.331,68.29 373.824,71.008 304.558,20.076 314.743,18.717 "/>
<polyline style="fill:none;stroke:#555555;stroke-width:3;" points="11.865,157.252 28.844,128.73 117.804,67.612 "/>
<line style="fill:none;stroke:#555555;stroke-width:3;" x1="30.881" y1="177.625" x2="29.522" y2="162.687"/>
<polyline style="fill:none;stroke:#555555;stroke-width:3;" points="56.007,145.707 74.344,169.476 364.995,172.874 "/>
<line style="fill:none;stroke:#555555;stroke-width:3;" x1="66.872" y1="181.7" x2="74.344" y2="169.476"/>
<line style="fill:none;stroke:#555555;stroke-width:3;" x1="32.238" y1="189.848" x2="67.552" y2="194.6"/>
<line style="fill:none;stroke:#555555;stroke-width:3;" x1="74.344" y1="205.47" x2="371.787" y2="208.86"/>
<line style="fill:none;stroke:#555555;stroke-width:3;" x1="28.163" y1="198.673" x2="57.366" y2="220.407"/>
<polyline style="fill:none;stroke:#555555;stroke-width:3;" points="119.165,274.053 28.163,208.86 11.187,191.209 "/>
<line style="fill:none;stroke:#555555;stroke-width:3;" x1="376.539" y1="184.413" x2="426.794" y2="183.737"/>
<line style="fill:none;stroke:#555555;stroke-width:3;" x1="376.539" y1="198.673" x2="428.149" y2="197.321"/>
<line style="fill:none;stroke:#555555;stroke-width:3;" x1="402.346" y1="227.88" x2="437.657" y2="204.786"/>
<line style="fill:none;stroke:#555555;stroke-width:3;" x1="396.912" y1="278.127" x2="479.764" y2="209.544"/>
<polyline style="fill:none;stroke:#555555;stroke-width:3;" points="436.301,170.836 471.615,164.724 477.726,139.595 "/>
<line style="fill:none;stroke:#555555;stroke-width:3;" x1="483.157" y1="171.513" x2="471.615" y2="164.724"/>
<line style="fill:none;stroke:#555555;stroke-width:3;" x1="397.592" y1="151.141" x2="373.824" y2="71.008"/>
<line style="fill:none;stroke:#555555;stroke-width:3;" x1="383.331" y1="68.29" x2="314.743" y2="18.717"/>
<line style="fill:none;stroke:#555555;stroke-width:3;" x1="214.917" y1="18.038" x2="304.558" y2="20.076"/>
<line style="fill:none;stroke:#555555;stroke-width:3;" x1="381.974" y1="275.415" x2="318.817" y2="312.084"/>
<line style="fill:none;stroke:#555555;stroke-width:3;" x1="496.062" y1="166.079" x2="495.381" y2="180.338"/>
<line style="fill:none;stroke:#555555;stroke-width:3;" x1="476.365" y1="200.711" x2="482.477" y2="183.737"/>
</svg>
