<svg version="1.1" id="Layer_1" xmlns="http://www.w3.org/2000/svg"
	 xmlns:xlink="http://www.w3.org/1999/xlink"
	 viewBox="0 0 612 792">
<g id="Front">
	<polygon style="fill:none;stroke:#555555;stroke-width:7;" points="303.772,7.705 211.816,60.942 56.944,331.969 192.458,677.206
		226.336,730.442 298.393,785.835 397.341,730.442 556.51,463.185 411.317,106.113 	"/>
	<polyline style="fill:none;stroke:#555555;stroke-width:7;" points="211.816,60.942 279.573,127.086 234.402,478.774
		271.506,730.442 371.529,683.659 481.229,367.46 380.75,78.5 279.75,127.25 	"/>
	<line style="fill:none;stroke:#555555;stroke-width:7;" x1="56.944" y1="331.969" x2="233.863" y2="482.544"/>
	<polyline style="fill:none;stroke:#555555;stroke-width:7;" points="557.594,465.327 481.229,367.46 233.863,481.46 	"/>
	<path style="fill:none;stroke:#555555;stroke-width:7;" d="M192.458,677.206l79.049,53.236c0,0,17.208,53.238,20.973,51.625"/>
	<line style="fill:none;stroke:#555555;stroke-width:7;" x1="371.529" y1="683.659" x2="397.341" y2="730.442"/>
</g>
<g id="Back">
	<path style="fill:none;stroke:#cccccc;stroke-width:7;stroke-dasharray:11,4;" d="M211.281,60.942
		c0,3.227,22.586,51.624,22.586,51.624l-105.4,319.424L226.5,731l99.857-66.7l49.476-349.538L338.192,54.49l-104.326,59.151"/>
	<polyline style="fill:none;stroke:#cccccc;stroke-width:7;stroke-dasharray:11,4;" points="556,463 375.833,314.762
		128.466,431.99 56.408,331.969 	"/>
	<line style="fill:none;stroke:#cccccc;stroke-width:7;stroke-dasharray:11,4;" x1="396.27" y1="729.901" x2="326.357" y2="664.3"/>
	<polyline style="fill:none;stroke:#cccccc;stroke-width:7;stroke-dasharray:11,4;" points="304,9.5 338.192,54.49 381.5,78 	"/>
</g>
</svg>
