<svg version="1.1" id="Layer_1" xmlns="http://www.w3.org/2000/svg" xmlns:xlink="http://www.w3.org/1999/xlink" viewBox="0 0 536 792">
<g id="Front">
	<polygon style="fill:none;stroke:#555555;stroke-width:5;" points="271.176,6.499 93.989,35.511 15.241,102.863 9.023,660.324
		59.795,751.51 259.78,784.665 419.347,753.58 524.005,661.362 529.183,121.514 472.19,34.476 	"/>
	<path style="fill:none;stroke:#555555;stroke-width:5;" d="M271.176,6.499c-4.144,2.073-38.338,86.003-38.338,86.003
		L96.063,144.309c0,0-4.147,551.247-5.182,554.356c-1.036,3.107,263.187,6.217,263.187,6.217l10.364-538.813l164.751-44.555"/>
	<line style="fill:none;stroke:#555555;stroke-width:5;" x1="15.241" y1="102.863" x2="96.063" y2="144.309"/>
	<line style="fill:none;stroke:#555555;stroke-width:5;" x1="232.837" y1="92.502" x2="364.432" y2="166.068"/>
	<line style="fill:none;stroke:#555555;stroke-width:5;" x1="59.795" y1="751.51" x2="90.881" y2="698.665"/>
	<line style="fill:none;stroke:#555555;stroke-width:5;" x1="420" y1="753.329" x2="354.067" y2="704.882"/>
</g>
<g id="Back">
	<polyline style="fill:none;stroke:#aaaaaa;stroke-width:5;stroke-dasharray:11,4;" points="94.667,35.331 188.283,80.067
		179.993,621.983 289.826,685.193 437.997,620.951 443.183,88.355 471.158,34.476 	"/>

		<line style="fill:none;stroke:#aaaaaa;stroke-width:5;stroke-dasharray:11,4;" x1="188.283" y1="80.067" x2="443.183" y2="88.355"/>

		<line style="fill:none;stroke:#aaaaaa;stroke-width:5;stroke-dasharray:11,4;" x1="9.333" y1="660.663" x2="179.993" y2="621.983"/>

		<line style="fill:none;stroke:#aaaaaa;stroke-width:5;stroke-dasharray:11,4;" x1="259.78" y1="782.595" x2="289.826" y2="685.193"/>
	<line style="fill:none;stroke:#aaaaaa;stroke-width:5;stroke-dasharray:11,4;" x1="524" y1="661.329" x2="437.997" y2="620.951"/>
</g>
</svg>
