<?xml version="1.0" encoding="iso-8859-1"?>
<svg version="1.1" id="Layer_1" xmlns="http://www.w3.org/2000/svg" xmlns:xlink="http://www.w3.org/1999/xlink" viewBox="0 0 364 792">
<polygon style="fill:none;stroke:#333333;stroke-width:5;" points="190.961,12.334 109.064,45.504 75.894,110.813 8.508,282.897
	18.876,472.603 67.597,675.781 96.625,753.528 172.302,785.667 262.489,755.606 295.66,689.259 357.858,509.922 350.6,321.249
	300.841,112.887 269.742,42.395 "/>
<polyline style="fill:none;stroke:#333333;stroke-width:5;" points="8.508,282.897 62.416,339.909 141.202,585.593 175.412,723.468
	218.95,515.104 300.841,274.6 350.6,321.249 "/>
<line style="fill:none;stroke:#333333;stroke-width:5;" x1="75.5" y1="112" x2="62.5" y2="339.5"/>
<line style="fill:none;stroke:#333333;stroke-width:5;" x1="109.064" y1="45.504" x2="269.742" y2="42.395"/>
<line style="fill:none;stroke:#333333;stroke-width:5;" x1="300.841" y1="112.887" x2="300.841" y2="274.6"/>
<line style="fill:none;stroke:#333333;stroke-width:5;" x1="141.202" y1="585.593" x2="219" y2="516.5"/>
<line style="fill:none;stroke:#333333;stroke-width:5;" x1="175.5" y1="723.5" x2="172.302" y2="785.667"/>
<polyline style="fill:none;stroke:#aaaaaa;stroke-width:5;stroke-dasharray:11,4;" points="191.5,12.75 192,55.75 151.565,272.529
	70.707,515.104 68,676 "/>
<line style="fill:none;stroke:#aaaaaa;stroke-width:5;stroke-dasharray:11,4;" x1="96.5" y1="753.75" x2="262.5" y2="755.75"/>
<polyline style="fill:none;stroke:#aaaaaa;stroke-width:5;stroke-dasharray:11,4;" points="299,679.5 308.1,449.795 228.28,208.259
	192.25,55.75 "/>
<line style="fill:none;stroke:#aaaaaa;stroke-width:5;stroke-dasharray:11,4;" x1="358.5" y1="508.5" x2="308.1" y2="449.795"/>
<line style="fill:none;stroke:#aaaaaa;stroke-width:5;stroke-dasharray:11,4;" x1="70.707" y1="515.104" x2="18.876" y2="470.526"/>
<line style="fill:none;stroke:#aaaaaa;stroke-width:5;stroke-dasharray:11,4;" x1="151.565" y1="272.529" x2="228.28" y2="208.259"/>
</svg>
