<?xml version="1.0" encoding="iso-8859-1"?>
<svg version="1.1" xmlns="http://www.w3.org/2000/svg" xmlns:xlink="http://www.w3.org/1999/xlink" viewBox="0 0 500 477.326">
<g id="Back">
	<path style="fill:none;stroke:#aaaaaa;stroke-width:4;stroke-dasharray:11,5;" d="M180.944,5.863
		C179.637,8.477,55.483,133.938,55.483,133.938l10.455,17.643l162.708-7.188l20.257-21.563l135.916,2.613l24.832,29.405
		l1.306,138.529l-22.217,20.257l-134.609-5.88l-22.871-23.524l-164.668,7.842l-7.841,24.83l124.808,132.65l166.627,1.306
		l10.456,8.495"/>
	<path style="fill:none;stroke:#aaaaaa;stroke-width:4;stroke-dasharray:11,5;" d="M209.696,7.17
		c-0.653,1.96,39.207,115.66,39.207,115.66"/>

		<line style="fill:none;stroke:#aaaaaa;stroke-width:4;stroke-dasharray:11,5;" x1="344.959" y1="11.09" x2="384.818" y2="125.443"/>

		<line style="fill:none;stroke:#aaaaaa;stroke-width:4;stroke-dasharray:11,5;" x1="409.65" y1="154.848" x2="495.251" y2="172.491"/>

		<line style="fill:none;stroke:#aaaaaa;stroke-width:4;stroke-dasharray:11,5;" x1="413.57" y1="293.377" x2="495.904" y2="311.674"/>

		<line style="fill:none;stroke:#aaaaaa;stroke-width:4;stroke-dasharray:11,5;" x1="254.13" y1="307.754" x2="211.656" y2="448.898"/>
	<path style="fill:none;stroke:#aaaaaa;stroke-width:4;stroke-dasharray:11,5;" d="M388.739,313.634
		c0,0-35.939,134.61-38.554,137.224"/>
	<path style="fill:none;stroke:#aaaaaa;stroke-width:4;stroke-dasharray:11,5;" d="M11.702,335.199
		c0.653,1.961,47.048-18.297,47.048-18.297"/>

		<line style="fill:none;stroke:#aaaaaa;stroke-width:4;stroke-dasharray:11,5;" x1="135.203" y1="465.233" x2="183.558" y2="449.552"/>

		<line style="fill:none;stroke:#aaaaaa;stroke-width:4;stroke-dasharray:11,5;" x1="65.938" y1="151.581" x2="66.591" y2="292.072"/>

		<line style="fill:none;stroke:#aaaaaa;stroke-width:4;stroke-dasharray:11,5;" x1="55.483" y1="133.938" x2="11.049" y2="148.314"/>

		<line style="fill:none;stroke:#aaaaaa;stroke-width:4;stroke-dasharray:11,5;" x1="228.646" y1="144.393" x2="231.913" y2="285.537"/>
</g>
<g id="Front">
	<line style="fill:none;stroke:#333333;stroke-width:5;" x1="284.842" y1="32" x2="243.021" y2="175.758"/>
	<line style="fill:none;stroke:#333333;stroke-width:5;" x1="145.658" y1="27.426" x2="108.412" y2="171.185"/>
	<line style="fill:none;stroke:#333333;stroke-width:5;" x1="315.554" y1="30.693" x2="442.975" y2="165.957"/>
	<line style="fill:none;stroke:#333333;stroke-width:5;" x1="358.682" y1="14.358" x2="487.41" y2="151.581"/>
	<line style="fill:none;stroke:#333333;stroke-width:5;" x1="266.545" y1="200.589" x2="432.52" y2="192.094"/>
	<line style="fill:none;stroke:#333333;stroke-width:5;" x1="266.545" y1="338.466" x2="435.787" y2="331.278"/>
	<line style="fill:none;stroke:#333333;stroke-width:5;" x1="245.635" y1="360.029" x2="287.455" y2="473.076"/>
	<line style="fill:none;stroke:#333333;stroke-width:5;" x1="112.986" y1="356.762" x2="149.579" y2="469.808"/>
	<path style="fill:none;stroke:#333333;stroke-width:5;" d="M3.861,174.451c0.653,3.268,1.307,139.183,1.307,139.183"/>
	<line style="fill:none;stroke:#333333;stroke-width:5;" x1="87.501" y1="192.748" x2="88.809" y2="331.278"/>
	<path style="fill:none;stroke:#333333;stroke-width:5;" d="M135.856,23.505l43.127-18.296c1.96,0.653,161.401,4.574,161.401,4.574
		l17.643,5.228l-42.474,15.683l-169.896-3.267L135.856,23.505L13.009,145.7l-9.148,28.751l83.641,18.297l20.911-21.563
		l134.609,4.574l23.524,24.831v137.877l-20.91,21.562l-132.649-3.267l-24.177-25.484L5.168,313.634l7.188,20.911l120.233,128.729
		l16.99,6.534l137.876,3.268l32.672-1.308l41.168-11.762l123.501-124.154l11.762-22.871l-1.961-145.718l-7.187-15.683
		l-44.436,14.376l-10.455,26.138l3.268,139.184l5.882,15.029L320.781,471.115"/>
	<line style="fill:none;stroke:#333333;stroke-width:5;" x1="441.669" y1="346.307" x2="484.796" y2="335.852"/>
</g>
</svg>
