<?xml version="1.0" encoding="iso-8859-1"?>
<svg version="1.1" xmlns="http://www.w3.org/2000/svg" xmlns:xlink="http://www.w3.org/1999/xlink" viewBox="0 0 487.79 500">
<polyline style="fill:none;stroke:#333333;stroke-width:4;" points="482.323,270.844 473.379,299.467 409.875,375.495
	269.445,491.773 "/>
<polyline style="fill:none;stroke:#333333;stroke-width:4;" points="166.584,316.461 165.691,290.522 194.909,291.12 "/>
<line style="fill:none;stroke:#333333;stroke-width:4;" x1="344.578" y1="147.41" x2="468.907" y2="236.855"/>
<line style="fill:none;stroke:#333333;stroke-width:4;" x1="327.585" y1="154.565" x2="330.268" y2="177.821"/>
<line style="fill:none;stroke:#333333;stroke-width:4;" x1="303.435" y1="144.726" x2="169.267" y2="256.532"/>
<line style="fill:none;stroke:#333333;stroke-width:4;" x1="250.662" y1="2.509" x2="281.968" y2="21.292"/>
<polyline style="fill:none;stroke:#333333;stroke-width:4;" points="72.666,161.721 80.716,131.31 227.406,7.876 250.662,2.509
	239.725,21.014 239.033,22.187 105.761,132.205 169.267,256.532 164.794,289.628 141.539,285.156 72.666,161.721 10.949,235.065
	73.263,365.655 81.611,384.439 99.5,395.172 166.584,316.461 298.962,411.273 234.86,490.281 241.717,497.14 269.445,491.773
	332.952,413.062 322.219,406.8 327.883,386.524 194.909,292.311 330.268,177.821 463.541,270.844 482.323,270.844 468.907,236.855
	405.4,110.737 281.968,21.292 344.578,147.41 327.585,154.565 303.435,144.726 238.14,21.292 "/>
<polyline style="fill:none;stroke:#333333;stroke-width:4;" points="105.761,132.205 80.716,131.31 6.477,223.438 10.949,235.065
	"/>
<line style="fill:none;stroke:#333333;stroke-width:4;" x1="73.561" y1="368.338" x2="141.539" y2="285.156"/>
<line style="fill:none;stroke:#333333;stroke-width:4;" x1="99.5" y1="395.172" x2="235.456" y2="491.773"/>
<line style="fill:none;stroke:#333333;stroke-width:4;" x1="327.883" y1="387.719" x2="463.541" y2="270.844"/>
<line style="fill:none;stroke:#333333;stroke-width:4;" x1="332.952" y1="413.062" x2="473.379" y2="299.467"/>
<line style="fill:none;stroke:#333333;stroke-width:4;" x1="298.962" y1="411.273" x2="322.219" y2="406.8"/>
</svg>
