<?xml version="1.0" encoding="iso-8859-1"?>
<svg version="1.1" id="Layer_1" xmlns="http://www.w3.org/2000/svg" xmlns:xlink="http://www.w3.org/1999/xlink" viewBox="0 0 612 792">
<path style="fill:none;stroke:#333333;stroke-width:4;" d="M307.875,146c0,0-194.108,42.225-194.108,44.116
	C113.767,192.006,6,374.14,6,374.14l1.891,22.057l118.481,184.023c0,0,30.881,19.538,28.99,20.167
	c-1.891,0.631,91.382,37.814,91.382,37.814l61.761,10.713l190.327-42.854L609.75,425.188l-11.344-23.948L481.815,215.955
	l-26.47-22.058l-86.34-38.444L307.875,146z"/>
<polyline style="fill:none;stroke:#333333;stroke-width:4;" points="307.875,146 433.288,210.283 339.386,242.424 169.227,231.08
	132.044,439.053 50.116,427.078 155.362,600.388 "/>
<polyline style="fill:none;stroke:#333333;stroke-width:4;" points="481.815,215.955 433.288,210.283 506.394,399.979
	425.727,445.354 305.354,445.354 210.191,488.84 247.374,639.462 "/>
<line style="fill:none;stroke:#333333;stroke-width:4;" x1="132.044" y1="439.053" x2="210.191" y2="488.84"/>
<polyline style="fill:none;stroke:#333333;stroke-width:4;" points="598,401 556.182,427.078 486,596.25 348.209,614.883
	252.416,639.462 "/>
<line style="fill:none;stroke:#333333;stroke-width:4;" x1="506.394" y1="399.979" x2="556.182" y2="427.078"/>
<line style="fill:none;stroke:#333333;stroke-width:4;" x1="425.727" y1="445.354" x2="347.25" y2="615"/>
<line style="fill:none;stroke:#333333;stroke-width:4;" x1="6" y1="374.14" x2="50.116" y2="427.078"/>
<line style="fill:none;stroke:#333333;stroke-width:4;" x1="113.767" y1="190.116" x2="169.227" y2="231.08"/>
<line style="fill:none;stroke:#333333;stroke-width:4;" x1="339.386" y1="242.424" x2="305.354" y2="445.354"/>
<line style="fill:none;stroke:#333333;stroke-width:4;" x1="484.967" y1="594.717" x2="498.832" y2="606.061"/>
<polyline style="fill:none;stroke:#cccccc;stroke-width:4;stroke-dasharray:11,4;" points="9.151,398.088 54.527,370.989
	130.784,196.418 267.541,178.772 369.006,156.084 404.299,304.186 308.505,346.41 187.503,346.41 100.533,399.979 178.68,584.003
	272.583,555.644 449.044,564.466 478.664,357.124 566.265,370.359 455.346,192.637 "/>
<line style="fill:none;stroke:#cccccc;stroke-width:4;stroke-dasharray:11,4;" x1="100.533" y1="399.979" x2="54.527" y2="370.989"/>
<line style="fill:none;stroke:#cccccc;stroke-width:4;stroke-dasharray:11,4;" x1="265.5" y1="180" x2="187" y2="344.5"/>
<polyline style="fill:none;stroke:#cccccc;stroke-width:4;stroke-dasharray:11,4;" points="310.396,648.284 178.68,584.003
	125.741,580.852 "/>
<line style="fill:none;stroke:#cccccc;stroke-width:4;stroke-dasharray:11,4;" x1="449.044" y1="564.466" x2="485.597" y2="594.086"/>
<line style="fill:none;stroke:#cccccc;stroke-width:4;stroke-dasharray:11,4;" x1="272.583" y1="555.644" x2="308.505" y2="346.41"/>
<path style="fill:none;stroke:#cccccc;stroke-width:4;stroke-dasharray:11,4;" d="M404.299,304.186
	c0,0.63,74.365,52.938,74.365,52.938"/>
<line style="fill:none;stroke:#cccccc;stroke-width:4;stroke-dasharray:11,4;" x1="598.406" y1="401.239" x2="565" y2="368.5"/>
</svg>
