<svg version="1.1" id="Layer_1" xmlns="http://www.w3.org/2000/svg" xmlns:xlink="http://www.w3.org/1999/xlink" viewBox="0 0 612 523.474">
<g id="front">
	<polygon style="fill:none;stroke:#333333;stroke-width:4;" points="585.064,36.136 105.496,7.386 82.864,19.008 7.625,97.917
		8.236,382.355 47.385,472.274 83.475,486.955 562.433,512.646 605.863,495.52 605.863,55.71 	"/>
	<polyline style="fill:none;stroke:#333333;stroke-width:4;" points="605.863,55.71 507.381,86.295 127.517,66.721 91.427,30.631
		19,85.896 84.087,154.193 82.864,452.7 445.599,472.886 446.211,154.805 108.555,130.337 127.517,66.109 	"/>
	<line style="fill:none;stroke:#333333;stroke-width:4;" x1="47.385" y1="472.274" x2="82.864" y2="452.7"/>
	<line style="fill:none;stroke:#333333;stroke-width:4;" x1="562" y1="511.396" x2="445.599" y2="472.886"/>
	<line style="fill:none;stroke:#333333;stroke-width:4;" x1="446.211" y1="154.805" x2="507.381" y2="86.295"/>
	<line style="fill:none;stroke:#333333;stroke-width:4;" x1="84.087" y1="154.193" x2="109" y2="130.396"/>
	<line style="fill:none;stroke:#333333;stroke-width:4;" x1="91.427" y1="30.631" x2="105.496" y2="7.386"/>
</g>
<g id="back">
	<path style="fill:none;stroke:#aaaaaa;stroke-width:4;stroke-dasharray:11,4;" d="M84.5,18.396
		c-1.835,0.612,87.67,30.585,87.67,30.585v296.671L39.433,390.308l62.393,70.344l69.122-23.854l392.096,18.962l-30.584-69.121
		l3.059-316.858L172.783,48.37"/>
	<line style="fill:none;stroke:#aaaaaa;stroke-width:4;stroke-dasharray:11,4;" x1="7.625" y1="381.132" x2="39.433" y2="390.308"/>

		<line style="fill:none;stroke:#aaaaaa;stroke-width:4;stroke-dasharray:11,4;" x1="83.475" y1="485.12" x2="101.826" y2="460.651"/>
	<polyline style="fill:none;stroke:#aaaaaa;stroke-width:4;stroke-dasharray:11,4;" points="171.559,343.207 189.91,368.286
		532.46,386.638 	"/>

		<line style="fill:none;stroke:#aaaaaa;stroke-width:4;stroke-dasharray:11,4;" x1="171.559" y1="434.35" x2="189.91" y2="368.286"/>
	<path style="fill:none;stroke:#aaaaaa;stroke-width:4;stroke-dasharray:11,4;" d="M605.252,495.52
		c-1.836-1.225-42.208-39.761-42.208-39.761"/>
	<path style="fill:none;stroke:#aaaaaa;stroke-width:4;stroke-dasharray:11,4;" d="M584.453,36.136
		c-1.223,1.835-48.935,33.644-48.935,33.644"/>
</g>
</svg>
