<?xml version="1.0" encoding="iso-8859-1"?>
<svg version="1.1"  xmlns="http://www.w3.org/2000/svg" xmlns:xlink="http://www.w3.org/1999/xlink" viewBox="0 0 500 490.698">
<polygon style="fill:none;stroke:#333333;stroke-width:4;" points="87.536,28.562 143.015,4.882 340.572,10.971 400.109,19.09
	345.984,41.417 124.748,35.328 "/>
<path style="fill:none;stroke:#333333;stroke-width:4;" d="M87.536,28.562l-47.36,27.062L15.82,82.011L2.965,132.753l8.119,288.216
	l12.178,35.859L15.82,178.76l21.65-1.353l6.089,231.385l-19.62,47.359l53.448,26.387l212.443,3.383l-9.473-24.355l20.297-48.037
	l60.891-68.334l30.445-1.352l35.859,22.326l19.619,61.566l-13.531,19.621l-63.597,33.828l67.657-23.002
	c0,0,47.359-31.799,47.359-29.094c0,2.707,12.178-18.943,12.178-18.943l-6.09-276.039l-20.297-57.508l-50.742,19.621l-37.211-22.327
	l-28.416,46.007l-262.507-4.736l29.769-50.742L382.5,73.151l58.203-27.675l-37.887-27.062"/>
<polyline style="fill:none;stroke:#333333;stroke-width:4;" points="124.748,35.328 122.041,64.42 92.272,115.163 37.47,178.083 "/>
<polyline style="fill:none;stroke:#333333;stroke-width:4;" points="354.779,119.899 361.545,345.194 300.654,413.528
	43.559,408.792 "/>
<line style="fill:none;stroke:#333333;stroke-width:4;" x1="2.965" y1="132.753" x2="15.82" y2="178.76"/>
<line style="fill:none;stroke:#333333;stroke-width:4;" x1="345.984" y1="41.417" x2="384" y2="74.651"/>
<line style="fill:none;stroke:#333333;stroke-width:4;" x1="440.703" y1="45.476" x2="471.148" y2="76.598"/>
<line style="fill:none;stroke:#333333;stroke-width:4;" x1="383.195" y1="73.892" x2="391.99" y2="343.843"/>
<line style="fill:none;stroke:#333333;stroke-width:4;" x1="420.406" y1="96.219" x2="427.85" y2="366.169"/>
<line style="fill:none;stroke:#333333;stroke-width:4;" x1="25.968" y1="455.476" x2="280.357" y2="461.565"/>
<line style="fill:none;stroke:#333333;stroke-width:4;" x1="289.83" y1="485.921" x2="370.341" y2="481.185"/>
<line style="fill:none;stroke:#333333;stroke-width:4;" x1="447.469" y1="427.735" x2="497.535" y2="410.146"/>
<line style="fill:none;stroke:#333333;stroke-width:4;" x1="433.938" y1="447.356" x2="485.357" y2="429.089"/>
</svg>
