<?xml version="1.0" encoding="iso-8859-1"?>
<svg version="1.1" xmlns="http://www.w3.org/2000/svg" xmlns:xlink="http://www.w3.org/1999/xlink" viewBox="0 0 377.558 500">
<polygon style="fill:none;stroke:#333333;stroke-width:4;" points="177.173,6.459 166.134,13.205 118.303,36.507 98.066,50.611
	61.886,100.283 25.092,163.446 5.468,249.298 18.96,337.603 49.621,402.605 67.405,424.068 100.519,461.476 111.557,473.739
	124.435,483.552 135.473,488.458 160.002,496.43 212.126,495.204 256.28,473.739 283.262,446.758 322.509,392.794 351.944,341.896
	364.822,308.168 366.661,292.837 374.02,261.562 369.727,242.553 358.076,165.286 323.735,94.764 276.516,30.375 244.015,15.044
	225.005,5.232 "/>
<path style="fill:none;stroke:#333333;stroke-width:4;" d="M166.134,13.205l20.85,9.811L174.72,38.347l-15.944,11.038
	l-10.425,12.265l-31.888-9.812L85.188,89.858l-17.783,18.397l-35.567,59.483l-6.746,37.407l-1.839,10.425l-3.68,14.104
	l77.267,22.689l1.84-13.491l0.613-14.717l19.01-96.277l11.651-22.076l11.038,12.265l-12.877,14.104l-15.331,95.664l25.756,4.292
	l14.717-101.796l12.877,1.84l-1.226-21.463l18.396-45.38l-1.84-15.33h62.55l-3.066,13.491l9.198,43.54l12.265,20.85l28.822,60.709
	l-8.585,39.247l-131.232,3.066l0.614,12.265l-1.84,13.491l-2.452,57.03l-15.331,25.757l-24.529-3.066L95,310.621l1.84,22.076
	l9.812,86.466c0,0,8.585,18.396,8.585,20.236c0,1.839,12.878,29.436,12.878,29.436s22.689,19.623,24.529,19.623
	c1.84,0,11.651-12.878,11.651-12.878l-9.812-31.275l-20.85-8.585l7.972-10.425l12.265,0.613l-9.812-87.692l4.292-12.877
	l136.751-4.906l10.424-36.181l55.19-9.198l4.293,21.463l-3.68,9.812l-42.312,55.804l-25.756,3.067l-33.729,58.869l-12.878,17.17
	l-11.65,32.501l-1.228,7.359l42.927-25.755l9.812-34.341l33.114-58.871"/>
<polyline style="fill:none;stroke:#333333;stroke-width:4;" points="244.015,15.044 226.231,22.403 234.203,37.12 244.015,49.999
	281.421,64.103 290.621,124.812 315.763,186.749 352.557,230.288 356.85,246.845 350.716,275.054 "/>
<line style="fill:none;stroke:#333333;stroke-width:4;" x1="367.888" y1="222.316" x2="352.557" y2="230.288"/>
<line style="fill:none;stroke:#333333;stroke-width:4;" x1="369.727" y1="242.553" x2="356.85" y2="246.845"/>
<line style="fill:none;stroke:#333333;stroke-width:4;" x1="294.913" y1="54.904" x2="281.421" y2="64.103"/>
<line style="fill:none;stroke:#333333;stroke-width:4;" x1="186.984" y1="23.016" x2="226.231" y2="22.403"/>
<line style="fill:none;stroke:#333333;stroke-width:4;" x1="177.173" y1="38.347" x2="234.203" y2="37.12"/>
<polyline style="fill:none;stroke:#333333;stroke-width:4;" points="181.465,49.999 174.72,38.347 141.605,24.242 "/>
<line style="fill:none;stroke:#333333;stroke-width:4;" x1="183.305" y1="65.329" x2="240.949" y2="63.489"/>
<line style="fill:none;stroke:#333333;stroke-width:4;" x1="166.134" y1="107.642" x2="250.147" y2="107.029"/>
<polyline style="fill:none;stroke:#333333;stroke-width:4;" points="164.909,110.708 140.992,118.067 153.257,130.331 "/>
<polyline style="fill:none;stroke:#333333;stroke-width:4;" points="148.351,61.649 129.954,105.802 85.188,89.858 "/>
<polyline style="fill:none;stroke:#333333;stroke-width:4;" points="116.463,51.838 118.303,36.507 158.776,49.385 "/>
<polyline style="fill:none;stroke:#333333;stroke-width:4;" points="61.886,100.283 67.405,108.255 118.303,127.878
	128.115,132.171 "/>
<polyline style="fill:none;stroke:#333333;stroke-width:4;" points="25.092,205.146 99.292,224.156 112.784,227.835 96.84,252.364
	95,310.621 16.507,284.865 10.374,252.978 "/>
<line style="fill:none;stroke:#333333;stroke-width:4;" x1="22.093" y1="218.721" x2="98.837" y2="236.744"/>
<polyline style="fill:none;stroke:#333333;stroke-width:4;" points="290.621,124.812 262.412,127.878 166.134,132.171
	151.417,230.901 138.54,232.127 150.19,256.656 285.102,252.978 283.875,240.1 282.649,227.835 "/>
<line style="fill:none;stroke:#333333;stroke-width:4;" x1="152.031" y1="243.166" x2="284.488" y2="240.1"/>
<line style="fill:none;stroke:#333333;stroke-width:4;" x1="291.234" y1="188.588" x2="315.763" y2="186.749"/>
<line style="fill:none;stroke:#333333;stroke-width:4;" x1="285.102" y1="252.978" x2="295.526" y2="284.252"/>
<path style="fill:none;stroke:#333333;stroke-width:4;" d="M147.738,313.687"/>
<polyline style="fill:none;stroke:#333333;stroke-width:4;" points="148.351,325.339 147.738,313.687 288.167,308.475 "/>
<polyline style="fill:none;stroke:#333333;stroke-width:4;" points="19.573,229.675 10.374,252.978 5.468,249.298 "/>
<polyline style="fill:none;stroke:#333333;stroke-width:4;" points="25.558,352.666 19.5,308.406 16.558,285.25 "/>
<path style="fill:none;stroke:#333333;stroke-width:4;" d="M96.227,320.433"/>
<polyline style="fill:none;stroke:#333333;stroke-width:4;" points="49.621,402.605 106.652,419.163 117.076,422.842
	107.878,336.377 96.84,332.697 20.186,310.621 "/>
<line style="fill:none;stroke:#333333;stroke-width:4;" x1="95.93" y1="322.209" x2="18.42" y2="298.862"/>
<polyline style="fill:none;stroke:#333333;stroke-width:4;" points="67.405,424.068 115.237,439.399 131.181,435.106
	117.076,422.842 "/>
<polyline style="fill:none;stroke:#333333;stroke-width:4;" points="141.605,425.295 132.407,339.443 281.421,333.924
	283.262,365.199 "/>
<line style="fill:none;stroke:#333333;stroke-width:4;" x1="285.102" y1="320.433" x2="281.421" y2="333.924"/>
<polyline style="fill:none;stroke:#333333;stroke-width:4;" points="236.656,441.238 154.483,444.305 153.87,425.908
	249.534,424.068 276.516,421.003 "/>
<line style="fill:none;stroke:#333333;stroke-width:4;" x1="355.009" y1="296.517" x2="366.661" y2="292.837"/>
<line style="fill:none;stroke:#333333;stroke-width:4;" x1="351.33" y1="306.328" x2="364.822" y2="308.168"/>
<line style="fill:none;stroke:#333333;stroke-width:4;" x1="164.295" y1="475.58" x2="225.005" y2="473.739"/>
<line style="fill:none;stroke:#333333;stroke-width:4;" x1="100.519" y1="461.476" x2="128.115" y2="468.835"/>
<line style="fill:none;stroke:#333333;stroke-width:4;" x1="109.718" y1="471.288" x2="138.54" y2="476.807"/>
<path style="fill:none;stroke:#333333;stroke-width:4;" d="M124.435,483.552c1.227-1.226,28.208,4.906,28.208,4.906h69.909
	c0,0,0-7.973,1.226-7.359c1.228,0.613-65.002,1.228-65.002,1.228"/>
<path style="fill:none;stroke:#333333;stroke-width:4;" d="M160.002,496.43"/>
<line style="fill:none;stroke:#333333;stroke-width:4;" x1="152.644" y1="488.458" x2="160.002" y2="496.43"/>
</svg>
