<svg version="1.1" xmlns="http://www.w3.org/2000/svg" xmlns:xlink="http://www.w3.org/1999/xlink" viewBox="0 0 612 743"><g id="Front">
	<polygon style="fill:none;stroke:#333333;stroke-width:4;" points="314.218,6.168 31.303,459.858 4.541,542.692 17.283,634.449
		46.596,687.974 255.596,735.129 543.609,675.227 572.927,633.172 607.336,541.415 584.396,440.742 	"/>
	<polyline style="fill:none;stroke:#333333;stroke-width:4;" points="314.218,6.168 264.52,513.383 413.621,582.201
		253.049,690.521 209.717,608.964 111.59,582.201 31.303,459.858 	"/>
	<line style="fill:none;stroke:#333333;stroke-width:4;" x1="607.336" y1="541.415" x2="413.621" y2="582.201"/>
	<line style="fill:none;stroke:#333333;stroke-width:4;" x1="264.52" y1="513.383" x2="209.717" y2="608.964"/>
	<line style="fill:none;stroke:#333333;stroke-width:4;" x1="17.5" y1="635" x2="111.59" y2="582.201"/>
	<line style="fill:none;stroke:#333333;stroke-width:4;" x1="253.049" y1="690.521" x2="255.596" y2="735.129"/>
</g>
<g id="back">
	<polyline style="fill:none;stroke:#aaaaaa;stroke-width:4;stroke-dasharray:11,4;" points="315.494,7.442 340.98,394.863
		172.762,507.007 328.24,578.378 383.035,475.151 504.108,505.736 571.65,628.079 	"/>

		<line style="fill:none;stroke:#aaaaaa;stroke-width:4;stroke-dasharray:11,4;" x1="5.814" y1="545.237" x2="172.762" y2="507.007"/>
	<polyline style="fill:none;stroke:#aaaaaa;stroke-width:4;stroke-dasharray:11,4;" points="49.143,684.15 320.595,621.703
		544.5,675.5 	"/>
	<path style="fill:none;stroke:#aaaaaa;stroke-width:4;stroke-dasharray:11,4;" d="M328.24,578.378"/>

		<line style="fill:none;stroke:#aaaaaa;stroke-width:4;stroke-dasharray:11,4;" x1="340.98" y1="394.863" x2="383.035" y2="475.151"/>

		<line style="fill:none;stroke:#aaaaaa;stroke-width:4;stroke-dasharray:11,4;" x1="504.108" y1="505.736" x2="580.573" y2="443.288"/>

		<line style="fill:none;stroke:#aaaaaa;stroke-width:4;stroke-dasharray:11,4;" x1="320.595" y1="621.703" x2="328.24" y2="578.378"/>
</g>
</svg>
