<svg version="1.1" id="Layer_1" xmlns="http://www.w3.org/2000/svg" xmlns:xlink="http://www.w3.org/1999/xlink" viewBox="0 0 458 489.667">
<polygon style="fill:none;stroke-width:4;stroke:#333333;" points="219.732,3.46 152.458,33.396 84.055,77.048 6.805,202.348 6.079,396.16
	60.167,442.5 56.848,244.617 116.012,103.198 168.456,47.499 247.977,52.273 257.953,113.732 273.457,256.586 276.094,447.917
	60.333,442.334 94.397,473.372 266.667,481.5 390.667,467.5 451.041,426.058 450.41,232.953 377.53,98.634 300.595,45.876 "/>
<path style="fill:none;stroke-width:4;stroke:#333333;" d="M300.595,45.876"/>
<polyline style="fill:none;stroke-width:4;stroke:#333333;" points="300.595,45.876 247.977,52.273 219.732,3.46 168.456,47.499 152.458,33.396 "/>
<polyline style="fill:none;stroke-width:4;stroke:#333333;" points="84.055,77.048 116.012,103.198 257.953,113.732 377.53,98.634 "/>
<polyline style="fill:none;stroke-width:4;stroke:#333333;" points="6.805,202.348 56.848,244.617 273.457,256.586 450.41,232.953 "/>
<polyline style="fill:none;stroke-width:4;stroke:#333333;" points="266.411,480.642 276.094,446.917 451.041,426.058 "/>
<path style="fill:none;stroke-width:4;stroke:#aaaaaa;stroke-dasharray:5,2;" d="M219.06,4.157c-0.649,2.065-38.054,173.92-38.054,173.92
	l1.905,187.604l0.344,58.889c0,0,170.608,5.239,168.543,4.59c-2.065-0.65,53.223-50.235,53.223-50.235l0.173-186.271L335.243,69.24
	L198.84,62.034L86.098,76.328"/>
<polyline style="fill:none;stroke-width:4;stroke:#aaaaaa;stroke-dasharray:5,2;" points="6.829,203.716 181.006,178.077 405.194,192.654
	449.701,231.596 "/>
<polyline style="fill:none;stroke-width:4;stroke:#aaaaaa;stroke-dasharray:5,2;" points="8.781,394.059 182.912,365.682 405.021,378.925
	451.702,424.677 "/>
<line style="fill:none;stroke-width:4;stroke:#aaaaaa;stroke-dasharray:5,2;" x1="60.999" y1="443.138" x2="183.255" y2="424.57"/>
<line style="fill:none;stroke-width:4;stroke:#aaaaaa;stroke-dasharray:5,2;" x1="391.501" y1="467.5" x2="351.798" y2="429.16"/>
<polyline style="fill:none;stroke-width:4;stroke:#aaaaaa;stroke-dasharray:5,2;" points="152.458,33.396 214.296,21.688 265.919,28.288 "/>
</svg>
