<svg version="1.1" xmlns="http://www.w3.org/2000/svg" xmlns:xlink="http://www.w3.org/1999/xlink" viewBox="0 0 459 792">
<g id="Back">
	<path style="fill:none;stroke:#aaaaaa;stroke-width:4;stroke-dasharray:11,4;" d="M229.418,5.533l-77.368,86.98l-60.297,44.074
		l-9.225,33.442l15.999,18.521c0,0,1.547,351.432,0.537,354.294c-1.009,2.863-16.853,30.431-16.853,30.431l11.858,35.73
		l60.81,36.587l-18.767-80.018l38.98-32.925l33.984,33.238l5.172,33.694l153.473,8.439l14.008-32.4l35.038-27.231l-5.452-347.66
		l-45.843-68.969l-156.401-5.61l-57.021-33.64l-19.36,63.99l36.964,27.529l34.081-27.248l183.194,10.877"/>
	<polyline style="fill:none;stroke:#aaaaaa;stroke-width:4;stroke-dasharray:11,4;" points="35.586,159.549 91.753,136.587
		82.528,170.03 15.838,202.211 	"/>

		<line style="fill:none;stroke:#aaaaaa;stroke-width:4;stroke-dasharray:11,4;" x1="132.69" y1="156.503" x2="98.526" y2="188.551"/>

		<line style="fill:none;stroke:#aaaaaa;stroke-width:4;stroke-dasharray:11,4;" x1="169.654" y1="184.033" x2="175.091" y2="532.651"/>

		<line style="fill:none;stroke:#aaaaaa;stroke-width:4;stroke-dasharray:11,4;" x1="99.063" y1="542.846" x2="136.111" y2="565.576"/>

		<line style="fill:none;stroke:#aaaaaa;stroke-width:4;stroke-dasharray:11,4;" x1="209.075" y1="565.89" x2="381.729" y2="575.623"/>
	<polyline style="fill:none;stroke:#aaaaaa;stroke-width:4;stroke-dasharray:11,4;" points="416.767,548.392 431.588,579.375
		402.396,656.634 	"/>

		<line style="fill:none;stroke:#aaaaaa;stroke-width:4;stroke-dasharray:11,4;" x1="453.881" y1="567.283" x2="431.588" y2="579.375"/>
	<polyline style="fill:none;stroke:#aaaaaa;stroke-width:4;stroke-dasharray:11,4;" points="382.753,571.802 368.779,602.281
		395.609,660.356 	"/>
	<polyline style="fill:none;stroke:#aaaaaa;stroke-width:4;stroke-dasharray:11,4;" points="236.021,782.388 154.878,645.594
		214.248,599.584 	"/>
	<line style="fill:none;stroke:#aaaaaa;stroke-width:4;stroke-dasharray:11,4;" x1="19.268" y1="603.862" x2="82.21" y2="573.276"/>

		<line style="fill:none;stroke:#aaaaaa;stroke-width:4;stroke-dasharray:11,4;" x1="35.942" y1="638.717" x2="94.068" y2="609.007"/>

		<line style="fill:none;stroke:#aaaaaa;stroke-width:4;stroke-dasharray:11,4;" x1="209.07" y1="126.153" x2="203.735" y2="156.785"/>

		<line style="fill:none;stroke:#aaaaaa;stroke-width:4;stroke-dasharray:11,4;" x1="395.729" y1="103.488" x2="365.472" y2="131.763"/>
</g>
<g id="Front">
	<path style="fill:none;stroke:#333333;stroke-width:4;" d="M228.442,6.477L64.928,133.238l-30.223,26.356L8.744,216.749
		l0.268,369.651c0,0,40.876,78.483,39.865,81.347c-1.009,2.862,21.708,21.502,21.708,21.502l163.466,95.984l156.56-113.441
		l31.35-35.937l17.998-40.973l12.93-25.697l-2.422-356.247l-53.811-107.513L228.442,6.477z"/>
	<polyline style="fill:none;stroke:#333333;stroke-width:4;" points="228.442,6.477 309.517,147.109 248.159,196.924
		94.688,188.484 64.928,133.238 27.047,213.227 49.48,248.184 79.704,221.828 256.195,231.629 285.414,262.862 287.971,611.432
		260.66,635.917 83.175,628.02 51.043,598.655 33.498,613.71 70.585,689.248 96.077,658.969 253.404,666.516 309.447,701.099
		329.85,632.325 368.713,606.121 365.314,250.816 326.295,230.933 310.46,148.085 370.36,181.775 378.379,217.44 438.407,188.724
		"/>
	<line style="fill:none;stroke:#333333;stroke-width:4;" x1="9.051" y1="218.595" x2="27.047" y2="213.227"/>
	<line style="fill:none;stroke:#333333;stroke-width:4;" x1="94.688" y1="188.484" x2="79.704" y2="221.828"/>
	<line style="fill:none;stroke:#333333;stroke-width:4;" x1="49.48" y1="248.184" x2="51.043" y2="598.655"/>
	<line style="fill:none;stroke:#333333;stroke-width:4;" x1="83.175" y1="628.02" x2="96.077" y2="658.969"/>
	<line style="fill:none;stroke:#333333;stroke-width:4;" x1="260.66" y1="635.917" x2="253.404" y2="666.516"/>
	<line style="fill:none;stroke:#333333;stroke-width:4;" x1="287.971" y1="611.432" x2="329.85" y2="632.325"/>
	<polyline style="fill:none;stroke:#333333;stroke-width:4;" points="239.894,780.534 309.447,701.099 370.772,653.202
		381.882,621.712 368.713,606.121 	"/>
	<line style="fill:none;stroke:#333333;stroke-width:4;" x1="439.958" y1="594.882" x2="381.882" y2="621.712"/>
	<line style="fill:none;stroke:#333333;stroke-width:4;" x1="421.96" y1="635.854" x2="370.772" y2="653.202"/>
	<line style="fill:none;stroke:#333333;stroke-width:4;" x1="378.135" y1="217.036" x2="365.314" y2="250.816"/>
	<line style="fill:none;stroke:#333333;stroke-width:4;" x1="285.414" y1="262.862" x2="326.295" y2="230.933"/>
	<line style="fill:none;stroke:#333333;stroke-width:4;" x1="248.159" y1="196.924" x2="256.195" y2="231.629"/>
	<line style="fill:none;stroke:#333333;stroke-width:4;" x1="370.36" y1="181.775" x2="422.675" y2="154.846"/>
</g>
</svg>
