<?xml version="1.0" encoding="UTF-8" standalone="no"?><svg xmlns="http://www.w3.org/2000/svg" xmlns:xlink="http://www.w3.org/1999/xlink" contentScriptType="application/ecmascript" contentStyleType="text/css" height="1306.2229px" preserveAspectRatio="none" style="width:1210px;height:1306px;" version="1.1" viewBox="0 0 1210 1306" width="1210.9191px" zoomAndPan="magnify"><defs><filter height="300%" id="fjmo10q7mwnf4" width="300%" x="-1" y="-1"><feGaussianBlur result="blurOut" stdDeviation="3.737404580152672"/><feColorMatrix in="blurOut" result="blurOut2" type="matrix" values="0 0 0 0 0 0 0 0 0 0 0 0 0 0 0 0 0 0 .4 0"/><feOffset dx="7.474809160305344" dy="7.474809160305344" in="blurOut2" result="blurOut3"/><feBlend in="SourceGraphic" in2="blurOut3" mode="normal"/></filter></defs><g><!--MD5=[18f5b4ccae6e62f3670d3aa352beb4cd]
class Trip--><rect fill="#F8F8F8" filter="url(#fjmo10q7mwnf4)" height="307.5804" id="Trip" style="stroke: #383838; stroke-width: 2.8030534351145038;" width="340.1038" x="746.5466" y="14.9496"/><ellipse cx="886.2321" cy="44.8489" fill="#C2C2C2" rx="20.5557" ry="20.5557" style="stroke: #383838; stroke-width: 1.868702290076336;"/><path d="M890.8536,56.3284 Q889.7678,56.8868 888.5734,57.166 Q887.379,57.4453 886.0605,57.4453 Q881.376,57.4453 878.9096,54.3584 Q876.4433,51.2716 876.4433,45.4392 Q876.4433,39.5913 878.9096,36.5045 Q881.376,33.4177 886.0605,33.4177 Q887.379,33.4177 888.5889,33.6969 Q889.7988,33.9761 890.8536,34.5345 L890.8536,39.6223 Q889.6747,38.5365 888.5657,38.0324 Q887.4566,37.5283 886.2777,37.5283 Q883.7648,37.5283 882.4851,39.5215 Q881.2054,41.5148 881.2054,45.4392 Q881.2054,49.3482 882.4851,51.3414 Q883.7648,53.3347 886.2777,53.3347 Q887.4566,53.3347 888.5657,52.8305 Q889.6747,52.3264 890.8536,51.2406 Z "/><text fill="#000000" font-family="sans-serif" font-size="22.4244" lengthAdjust="spacingAndGlyphs" textLength="44.8489" x="924.5405" y="53.3237">Trip</text><line style="stroke: #383838; stroke-width: 2.8030534351145038;" x1="748.4153" x2="1084.7817" y1="74.7481" y2="74.7481"/><text fill="#000000" font-family="sans-serif" font-size="20.5557" lengthAdjust="spacingAndGlyphs" textLength="18.687" x="757.7588" y="102.0961">id</text><text fill="#000000" font-family="sans-serif" font-size="20.5557" lengthAdjust="spacingAndGlyphs" textLength="108.3847" x="757.7588" y="126.3053">title: String</text><text fill="#000000" font-family="sans-serif" font-size="20.5557" lengthAdjust="spacingAndGlyphs" textLength="147.6275" x="757.7588" y="150.5145">startDate: Date</text><text fill="#000000" font-family="sans-serif" font-size="20.5557" lengthAdjust="spacingAndGlyphs" textLength="138.284" x="757.7588" y="174.7237">endDate: Date</text><text fill="#000000" font-family="sans-serif" font-size="20.5557" lengthAdjust="spacingAndGlyphs" textLength="207.426" x="757.7588" y="198.9328">type: Set&lt;TripType&gt;</text><text fill="#000000" font-family="sans-serif" font-size="20.5557" lengthAdjust="spacingAndGlyphs" textLength="153.2336" x="757.7588" y="223.142">abstract: String</text><text fill="#000000" font-family="sans-serif" font-size="20.5557" lengthAdjust="spacingAndGlyphs" textLength="179.3954" x="757.7588" y="247.3512">cover: TitlePicture</text><line style="stroke: #383838; stroke-width: 2.8030534351145038;" x1="748.4153" x2="1084.7817" y1="259.162" y2="259.162"/><text fill="#000000" font-family="sans-serif" font-size="20.5557" lengthAdjust="spacingAndGlyphs" textLength="285.9115" x="757.7588" y="286.51">addReport(TravelDayReport)</text><text fill="#000000" font-family="sans-serif" font-size="20.5557" lengthAdjust="spacingAndGlyphs" textLength="317.6794" x="757.7588" y="310.7192">updateReport(TravelDayReport)</text><!--MD5=[983f384ae73422b19c720e4c3430a2f6]
class TravelDayReport--><rect fill="#F8F8F8" filter="url(#fjmo10q7mwnf4)" height="268.4216" id="TravelDayReport" style="stroke: #383838; stroke-width: 2.8030534351145038;" width="392.4275" x="542.858" y="435.4076"/><ellipse cx="640.4977" cy="465.3069" fill="#C2C2C2" rx="20.5557" ry="20.5557" style="stroke: #383838; stroke-width: 1.868702290076336;"/><path d="M645.1193,476.7864 Q644.0335,477.3449 642.8391,477.6241 Q641.6447,477.9033 640.3262,477.9033 Q635.6416,477.9033 633.1753,474.8164 Q630.7089,471.7296 630.7089,465.8972 Q630.7089,460.0493 633.1753,456.9625 Q635.6416,453.8757 640.3262,453.8757 Q641.6447,453.8757 642.8546,454.1549 Q644.0645,454.4341 645.1193,454.9925 L645.1193,460.0803 Q643.9404,458.9945 642.8313,458.4904 Q641.7222,457.9863 640.5433,457.9863 Q638.0304,457.9863 636.7507,459.9795 Q635.471,461.9728 635.471,465.8972 Q635.471,469.8062 636.7507,471.7994 Q638.0304,473.7927 640.5433,473.7927 Q641.7222,473.7927 642.8313,473.2885 Q643.9404,472.7844 645.1193,471.6986 Z "/><text fill="#000000" font-family="sans-serif" font-size="22.4244" lengthAdjust="spacingAndGlyphs" textLength="181.2641" x="678.8061" y="473.7817">TravelDayReport</text><line style="stroke: #383838; stroke-width: 2.8030534351145038;" x1="544.7267" x2="933.4168" y1="495.2061" y2="495.2061"/><text fill="#000000" font-family="sans-serif" font-size="20.5557" lengthAdjust="spacingAndGlyphs" textLength="18.687" x="554.0702" y="522.5541">id</text><text fill="#000000" font-family="sans-serif" font-size="20.5557" lengthAdjust="spacingAndGlyphs" textLength="72.8794" x="554.0702" y="546.7633">day: Int</text><text fill="#000000" font-family="sans-serif" font-size="20.5557" lengthAdjust="spacingAndGlyphs" textLength="99.0412" x="554.0702" y="570.9725">date: Date</text><text fill="#000000" font-family="sans-serif" font-size="20.5557" lengthAdjust="spacingAndGlyphs" textLength="153.2336" x="554.0702" y="595.1817">abstract: String</text><text fill="#000000" font-family="sans-serif" font-size="20.5557" lengthAdjust="spacingAndGlyphs" textLength="229.8504" x="554.0702" y="619.3909">keywords: Set&lt;String&gt;</text><text fill="#000000" font-family="sans-serif" font-size="20.5557" lengthAdjust="spacingAndGlyphs" textLength="147.6275" x="554.0702" y="643.6">content: String</text><text fill="#000000" font-family="sans-serif" font-size="20.5557" lengthAdjust="spacingAndGlyphs" textLength="370.0031" x="554.0702" y="667.8092">imageSets: List&lt;TravelDayImageSet&gt;</text><text fill="#000000" font-family="sans-serif" font-size="20.5557" lengthAdjust="spacingAndGlyphs" textLength="334.4977" x="554.0702" y="692.0184">travelPath: List&lt;TravelDayTrace&gt;</text><!--MD5=[50dbfc70dcf35626be0843644364ce18]
class TravelDayTrace--><rect fill="#F8F8F8" filter="url(#fjmo10q7mwnf4)" height="234.9528" id="TravelDayTrace" style="stroke: #383838; stroke-width: 2.8030534351145038;" width="368.1344" x="564.3481" y="816.6229"/><ellipse cx="655.4473" cy="846.5221" fill="#C2C2C2" rx="20.5557" ry="20.5557" style="stroke: #383838; stroke-width: 1.868702290076336;"/><path d="M660.0689,858.0017 Q658.9831,858.5601 657.7887,858.8393 Q656.5943,859.1185 655.2758,859.1185 Q650.5913,859.1185 648.1249,856.0317 Q645.6585,852.9449 645.6585,847.1125 Q645.6585,841.2646 648.1249,838.1778 Q650.5913,835.0909 655.2758,835.0909 Q656.5943,835.0909 657.8042,835.3701 Q659.0141,835.6494 660.0689,836.2078 L660.0689,841.2956 Q658.89,840.2098 657.7809,839.7057 Q656.6718,839.2015 655.493,839.2015 Q652.9801,839.2015 651.7003,841.1948 Q650.4206,843.188 650.4206,847.1125 Q650.4206,851.0214 651.7003,853.0147 Q652.9801,855.0079 655.493,855.0079 Q656.6718,855.0079 657.7809,854.5038 Q658.89,853.9997 660.0689,852.9139 Z "/><text fill="#000000" font-family="sans-serif" font-size="22.4244" lengthAdjust="spacingAndGlyphs" textLength="170.0519" x="693.7557" y="854.997">TravelDayTrace</text><line style="stroke: #383838; stroke-width: 2.8030534351145038;" x1="566.2168" x2="930.6137" y1="876.4214" y2="876.4214"/><text fill="#000000" font-family="sans-serif" font-size="20.5557" lengthAdjust="spacingAndGlyphs" textLength="121.4656" x="575.5603" y="903.7694">trace: String</text><text fill="#000000" font-family="sans-serif" font-size="20.5557" lengthAdjust="spacingAndGlyphs" textLength="134.5466" x="575.5603" y="927.9786">format: Enum</text><text fill="#000000" font-family="sans-serif" font-size="20.5557" lengthAdjust="spacingAndGlyphs" textLength="345.7099" x="575.5603" y="952.1878">imageLocation: TravelDayImageSet</text><text fill="#000000" font-family="sans-serif" font-size="20.5557" lengthAdjust="spacingAndGlyphs" textLength="177.5267" x="575.5603" y="976.3969">traceColor: String</text><line style="stroke: #383838; stroke-width: 2.8030534351145038;" x1="566.2168" x2="930.6137" y1="988.2077" y2="988.2077"/><text fill="#000000" font-family="sans-serif" font-size="20.5557" lengthAdjust="spacingAndGlyphs" textLength="72.8794" x="575.5603" y="1015.5557">toKml()</text><text fill="#000000" font-family="sans-serif" font-size="20.5557" lengthAdjust="spacingAndGlyphs" textLength="78.4855" x="575.5603" y="1039.7649">toKmz()</text><!--MD5=[cc015b41eed39c88bd076f3461e291c9]
class TripType--><rect fill="#F8F8F8" filter="url(#fjmo10q7mwnf4)" height="147.3756" id="TripType" style="stroke: #383838; stroke-width: 2.8030534351145038;" width="188.7389" x="1001.6244" y="496.1405"/><ellipse cx="1043.1096" cy="526.0397" fill="#C2C2C2" rx="20.5557" ry="20.5557" style="stroke: #383838; stroke-width: 1.868702290076336;"/><path d="M1047.7312,537.5193 Q1046.6454,538.0777 1045.451,538.3569 Q1044.2566,538.6361 1042.9381,538.6361 Q1038.2535,538.6361 1035.7872,535.5493 Q1033.3208,532.4624 1033.3208,526.6301 Q1033.3208,520.7821 1035.7872,517.6953 Q1038.2535,514.6085 1042.9381,514.6085 Q1044.2566,514.6085 1045.4665,514.8877 Q1046.6764,515.1669 1047.7312,515.7253 L1047.7312,520.8132 Q1046.5523,519.7273 1045.4432,519.2232 Q1044.3341,518.7191 1043.1552,518.7191 Q1040.6423,518.7191 1039.3626,520.7123 Q1038.0829,522.7056 1038.0829,526.6301 Q1038.0829,530.539 1039.3626,532.5322 Q1040.6423,534.5255 1043.1552,534.5255 Q1044.3341,534.5255 1045.4432,534.0214 Q1046.5523,533.5172 1047.7312,532.4314 Z "/><text fill="#000000" font-family="sans-serif" font-size="22.4244" lengthAdjust="spacingAndGlyphs" textLength="99.0412" x="1072.2614" y="534.5146">TripType</text><line style="stroke: #383838; stroke-width: 2.8030534351145038;" x1="1003.4931" x2="1188.4947" y1="555.9389" y2="555.9389"/><text fill="#000000" font-family="sans-serif" font-size="20.5557" lengthAdjust="spacingAndGlyphs" textLength="110.2534" x="1012.8366" y="583.287">type: Enum</text><text fill="#000000" font-family="sans-serif" font-size="20.5557" lengthAdjust="spacingAndGlyphs" textLength="166.3145" x="1012.8366" y="607.4961">logo: LogoImage</text><text fill="#000000" font-family="sans-serif" font-size="20.5557" lengthAdjust="spacingAndGlyphs" textLength="117.7282" x="1012.8366" y="631.7053">label: String</text><!--MD5=[6ab16712a9ec8a66053c7b9e611831e3]
class LogoImage--><rect fill="#F8F8F8" filter="url(#fjmo10q7mwnf4)" height="147.3756" id="LogoImage" style="stroke: #383838; stroke-width: 2.8030534351145038;" width="175.658" x="1008.1649" y="860.5374"/><ellipse cx="1036.1954" cy="890.4366" fill="#ABABAB" rx="20.5557" ry="20.5557" style="stroke: #383838; stroke-width: 1.868702290076336;"/><path d="M1042.9494,902.5832 L1028.5235,902.5832 L1028.5235,879.4243 L1042.9494,879.4243 L1042.9494,883.4573 L1033.0995,883.4573 L1033.0995,888.4521 L1042.0187,888.4521 L1042.0187,892.4851 L1033.0995,892.4851 L1033.0995,898.5502 L1042.9494,898.5502 Z "/><text fill="#000000" font-family="sans-serif" font-size="22.4244" lengthAdjust="spacingAndGlyphs" textLength="115.8595" x="1062.3573" y="898.9115">LogoImage</text><line style="stroke: #383838; stroke-width: 2.8030534351145038;" x1="1010.0336" x2="1181.9542" y1="920.3359" y2="920.3359"/><text fill="#000000" font-family="sans-serif" font-size="20.5557" lengthAdjust="spacingAndGlyphs" textLength="18.687" x="1019.3771" y="947.6839">id</text><text fill="#000000" font-family="sans-serif" font-size="20.5557" lengthAdjust="spacingAndGlyphs" textLength="69.142" x="1019.3771" y="971.8931">url: Url</text><text fill="#000000" font-family="sans-serif" font-size="20.5557" lengthAdjust="spacingAndGlyphs" textLength="95.3038" x="1019.3771" y="996.1023">alt: String</text><!--MD5=[e9ae9027ba506b7fff6482c2f7448c93]
class RepoImage--><rect fill="#F8F8F8" filter="url(#fjmo10q7mwnf4)" height="220.0032" id="RepoImage" style="stroke: #383838; stroke-width: 2.8030534351145038;" width="252.2748" x="246.6687" y="824.0977"/><ellipse cx="306.654" cy="853.9969" fill="#C2C2C2" rx="20.5557" ry="20.5557" style="stroke: #383838; stroke-width: 1.868702290076336;"/><path d="M311.2756,865.4765 Q310.1898,866.0349 308.9954,866.3141 Q307.801,866.5934 306.4825,866.5934 Q301.798,866.5934 299.3316,863.5065 Q296.8653,860.4197 296.8653,854.5873 Q296.8653,848.7394 299.3316,845.6526 Q301.798,842.5657 306.4825,842.5657 Q307.801,842.5657 309.0109,842.845 Q310.2208,843.1242 311.2756,843.6826 L311.2756,848.7704 Q310.0967,847.6846 308.9876,847.1805 Q307.8786,846.6763 306.6997,846.6763 Q304.1868,846.6763 302.9071,848.6696 Q301.6273,850.6628 301.6273,854.5873 Q301.6273,858.4962 302.9071,860.4895 Q304.1868,862.4828 306.6997,862.4828 Q307.8786,862.4828 308.9876,861.9786 Q310.0967,861.4745 311.2756,860.3887 Z "/><text fill="#000000" font-family="sans-serif" font-size="22.4244" lengthAdjust="spacingAndGlyphs" textLength="121.4656" x="339.9169" y="862.4718">RepoImage</text><line style="stroke: #383838; stroke-width: 2.8030534351145038;" x1="248.5374" x2="497.0748" y1="883.8962" y2="883.8962"/><text fill="#000000" font-family="sans-serif" font-size="20.5557" lengthAdjust="spacingAndGlyphs" textLength="18.687" x="257.8809" y="911.2442">id</text><text fill="#000000" font-family="sans-serif" font-size="20.5557" lengthAdjust="spacingAndGlyphs" textLength="108.3847" x="257.8809" y="935.4534">title: String</text><text fill="#000000" font-family="sans-serif" font-size="20.5557" lengthAdjust="spacingAndGlyphs" textLength="229.8504" x="257.8809" y="959.6626">keywords: Set&lt;String&gt;</text><text fill="#000000" font-family="sans-serif" font-size="20.5557" lengthAdjust="spacingAndGlyphs" textLength="69.142" x="257.8809" y="983.8718">url: Url</text><text fill="#000000" font-family="sans-serif" font-size="20.5557" lengthAdjust="spacingAndGlyphs" textLength="185.0015" x="257.8809" y="1008.0809">description: String</text><text fill="#000000" font-family="sans-serif" font-size="20.5557" lengthAdjust="spacingAndGlyphs" textLength="216.7695" x="257.8809" y="1032.2901">location: GeoLocation</text><!--MD5=[9686fd23d5ba66d93ad65d1f0ecbd46c]
class TripImage--><rect fill="#F8F8F8" filter="url(#fjmo10q7mwnf4)" height="123.1665" id="TripImage" style="stroke: #383838; stroke-width: 2.8030534351145038;" width="170.0519" x="11.2122" y="872.684"/><ellipse cx="39.2427" cy="902.5832" fill="#C2C2C2" rx="20.5557" ry="20.5557" style="stroke: #383838; stroke-width: 1.868702290076336;"/><path d="M43.8643,914.0628 Q42.7785,914.6212 41.5841,914.9004 Q40.3897,915.1796 39.0712,915.1796 Q34.3867,915.1796 31.9203,912.0928 Q29.454,909.006 29.454,903.1736 Q29.454,897.3257 31.9203,894.2388 Q34.3867,891.152 39.0712,891.152 Q40.3897,891.152 41.5996,891.4312 Q42.8095,891.7104 43.8643,892.2688 L43.8643,897.3567 Q42.6854,896.2709 41.5763,895.7667 Q40.4673,895.2626 39.2884,895.2626 Q36.7755,895.2626 35.4958,897.2559 Q34.216,899.2491 34.216,903.1736 Q34.216,907.0825 35.4958,909.0758 Q36.7755,911.069 39.2884,911.069 Q40.4673,911.069 41.5763,910.5649 Q42.6854,910.0608 43.8643,908.9749 Z "/><text fill="#000000" font-family="sans-serif" font-size="22.4244" lengthAdjust="spacingAndGlyphs" textLength="110.2534" x="65.4046" y="911.0581">TripImage</text><line style="stroke: #383838; stroke-width: 2.8030534351145038;" x1="13.0809" x2="179.3954" y1="932.4824" y2="932.4824"/><text fill="#000000" font-family="sans-serif" font-size="20.5557" lengthAdjust="spacingAndGlyphs" textLength="69.142" x="22.4244" y="959.8305">url: Url</text><text fill="#000000" font-family="sans-serif" font-size="20.5557" lengthAdjust="spacingAndGlyphs" textLength="145.7588" x="22.4244" y="984.0396">caption: String</text><!--MD5=[9de271188724ed563107a6e58609d080]
class TravelDayImageSet--><rect fill="#F8F8F8" filter="url(#fjmo10q7mwnf4)" height="234.9528" id="TravelDayImageSet" style="stroke: #383838; stroke-width: 2.8030534351145038;" width="282.174" x="80.3542" y="452.226"/><ellipse cx="115.953" cy="482.1252" fill="#C2C2C2" rx="20.5557" ry="20.5557" style="stroke: #383838; stroke-width: 1.868702290076336;"/><path d="M120.5745,493.6048 Q119.4887,494.1632 118.2943,494.4424 Q117.0999,494.7216 115.7814,494.7216 Q111.0969,494.7216 108.6305,491.6348 Q106.1642,488.5479 106.1642,482.7155 Q106.1642,476.8676 108.6305,473.7808 Q111.0969,470.694 115.7814,470.694 Q117.0999,470.694 118.3098,470.9732 Q119.5198,471.2524 120.5745,471.8108 L120.5745,476.8987 Q119.3957,475.8128 118.2866,475.3087 Q117.1775,474.8046 115.9986,474.8046 Q113.4857,474.8046 112.206,476.7978 Q110.9263,478.7911 110.9263,482.7155 Q110.9263,486.6245 112.206,488.6177 Q113.4857,490.611 115.9986,490.611 Q117.1775,490.611 118.2866,490.1069 Q119.3957,489.6027 120.5745,488.5169 Z "/><text fill="#000000" font-family="sans-serif" font-size="22.4244" lengthAdjust="spacingAndGlyphs" textLength="205.5573" x="143.7966" y="490.6">TravelDayImageSet</text><line style="stroke: #383838; stroke-width: 2.8030534351145038;" x1="82.2229" x2="360.6595" y1="512.0244" y2="512.0244"/><text fill="#000000" font-family="sans-serif" font-size="20.5557" lengthAdjust="spacingAndGlyphs" textLength="18.687" x="91.5664" y="539.3724">id</text><text fill="#000000" font-family="sans-serif" font-size="20.5557" lengthAdjust="spacingAndGlyphs" textLength="252.2748" x="91.5664" y="563.5816">images: List&lt;TripImage&gt;</text><text fill="#000000" font-family="sans-serif" font-size="20.5557" lengthAdjust="spacingAndGlyphs" textLength="145.7588" x="91.5664" y="587.7908">caption: String</text><text fill="#000000" font-family="sans-serif" font-size="20.5557" lengthAdjust="spacingAndGlyphs" textLength="259.7496" x="91.5664" y="612">geoLocation: GeoLocation</text><text fill="#000000" font-family="sans-serif" font-size="20.5557" lengthAdjust="spacingAndGlyphs" textLength="185.0015" x="91.5664" y="636.2092">displayStyle: Enum</text><line style="stroke: #383838; stroke-width: 2.8030534351145038;" x1="82.2229" x2="360.6595" y1="648.02" y2="648.02"/><text fill="#000000" font-family="sans-serif" font-size="20.5557" lengthAdjust="spacingAndGlyphs" textLength="213.0321" x="91.5664" y="675.368">addImage(TripImage)</text><!--MD5=[cc9ba9a679d36643203143a8a4986f83]
class ImageCategory--><rect fill="#F8F8F8" filter="url(#fjmo10q7mwnf4)" height="123.1665" id="ImageCategory" style="stroke: #383838; stroke-width: 2.8030534351145038;" width="220.5069" x="262.5527" y="1164.2015"/><ellipse cx="290.5832" cy="1194.1008" fill="#ABABAB" rx="20.5557" ry="20.5557" style="stroke: #383838; stroke-width: 1.868702290076336;"/><path d="M297.3372,1206.2473 L282.9113,1206.2473 L282.9113,1183.0884 L297.3372,1183.0884 L297.3372,1187.1214 L287.4873,1187.1214 L287.4873,1192.1162 L296.4065,1192.1162 L296.4065,1196.1492 L287.4873,1196.1492 L287.4873,1202.2143 L297.3372,1202.2143 Z "/><text fill="#000000" font-family="sans-serif" font-size="22.4244" lengthAdjust="spacingAndGlyphs" textLength="160.7084" x="316.745" y="1202.5756">ImageCategory</text><line style="stroke: #383838; stroke-width: 2.8030534351145038;" x1="264.4214" x2="481.1908" y1="1224" y2="1224"/><text fill="#000000" font-family="sans-serif" font-size="20.5557" lengthAdjust="spacingAndGlyphs" textLength="104.6473" x="273.7649" y="1251.348">key: String</text><text fill="#000000" font-family="sans-serif" font-size="20.5557" lengthAdjust="spacingAndGlyphs" textLength="117.7282" x="273.7649" y="1275.5572">label: String</text><!--MD5=[2d379442334abbcbaceda75b9f82fdb3]
link TripType to LogoImage--><path d="M1095.9939,644.5715 C1095.9939,707.6589 1095.9939,797.5621 1095.9939,860.4627 " fill="none" id="TripType-LogoImage" style="stroke: #383838; stroke-width: 1.868702290076336;"/><text fill="#000000" font-family="sans-serif" font-size="24.2931" lengthAdjust="spacingAndGlyphs" textLength="14.9496" x="1071.8526" y="681.6936">1</text><text fill="#000000" font-family="sans-serif" font-size="24.2931" lengthAdjust="spacingAndGlyphs" textLength="44.8489" x="1039.0102" y="840.3349">1..n</text><!--MD5=[07519996ce2005c1f01d606ba69be612]
reverse link Trip to TravelDayReport--><path d="M840.916,347.8029 C840.916,347.8029 840.916,435.2395 840.916,435.2395 " fill="none" id="Trip&lt;-TravelDayReport" style="stroke: #383838; stroke-width: 1.868702290076336;"/><polygon fill="#383838" points="840.916,323.5097,833.4412,334.722,840.916,345.9342,848.3908,334.722,840.916,323.5097" style="stroke: #383838; stroke-width: 1.868702290076336;"/><text fill="#000000" font-family="sans-serif" font-size="24.2931" lengthAdjust="spacingAndGlyphs" textLength="14.9496" x="819.08" y="360.9978">1</text><text fill="#000000" font-family="sans-serif" font-size="24.2931" lengthAdjust="spacingAndGlyphs" textLength="14.9496" x="819.9778" y="415.4222">n</text><!--MD5=[9f01bb3e391bc5335526ae4aca1e3694]
reverse link Trip to TripType--><path d="M1044.1374,347.8029 C1044.1374,347.8029 1044.1374,495.6733 1044.1374,495.6733 " fill="none" id="Trip&lt;-TripType" style="stroke: #383838; stroke-width: 1.868702290076336;"/><polygon fill="#383838" points="1044.1374,323.5097,1036.6626,334.722,1044.1374,345.9342,1051.6122,334.722,1044.1374,323.5097" style="stroke: #383838; stroke-width: 1.868702290076336;"/><text fill="#000000" font-family="sans-serif" font-size="24.2931" lengthAdjust="spacingAndGlyphs" textLength="14.9496" x="1023.562" y="360.9978">1</text><text fill="#000000" font-family="sans-serif" font-size="24.2931" lengthAdjust="spacingAndGlyphs" textLength="44.8489" x="986.5215" y="476.0249">1..n</text><!--MD5=[453e48ac7b6b77b46f97fe99cdfcc9df]
link TravelDayImageSet to TravelDayReport--><path d="M362.8833,569.9542 C362.8833,569.9542 518.2098,569.9542 518.2098,569.9542 " fill="none" id="TravelDayImageSet-&gt;TravelDayReport" style="stroke: #383838; stroke-width: 1.868702290076336;"/><polygon fill="#383838" points="542.503,569.9542,531.2907,562.4794,520.0785,569.9542,531.2907,577.429,542.503,569.9542" style="stroke: #383838; stroke-width: 1.868702290076336;"/><text fill="#000000" font-family="sans-serif" font-size="24.2931" lengthAdjust="spacingAndGlyphs" textLength="44.8489" x="377.6079" y="564.2523">0..n</text><text fill="#000000" font-family="sans-serif" font-size="24.2931" lengthAdjust="spacingAndGlyphs" textLength="14.9496" x="497.7313" y="564.4687">1</text><!--MD5=[ba75650430faba14472021b2e2b47a87]
reverse link TravelDayImageSet to TripImage--><path d="M130.8092,712.0503 C130.8092,712.0503 130.8092,872.5905 130.8092,872.5905 " fill="none" id="TravelDayImageSet&lt;-TripImage" style="stroke: #383838; stroke-width: 1.868702290076336;"/><polygon fill="#383838" points="130.8092,687.7572,123.3344,698.9694,130.8092,710.1816,138.284,698.9694,130.8092,687.7572" style="stroke: #383838; stroke-width: 1.868702290076336;"/><text fill="#000000" font-family="sans-serif" font-size="24.2931" lengthAdjust="spacingAndGlyphs" textLength="14.9496" x="105.1291" y="725.7206">1</text><text fill="#000000" font-family="sans-serif" font-size="24.2931" lengthAdjust="spacingAndGlyphs" textLength="44.8489" x="71.9742" y="852.4949">1..n</text><!--MD5=[ee52e679a7498d04fda840184ed4d05c]
reverse link TripImage to RepoImage--><path d="M205.7628,934.3511 C205.7628,934.3511 246.1642,934.3511 246.1642,934.3511 " fill="none" id="TripImage&lt;-RepoImage" style="stroke: #383838; stroke-width: 1.868702290076336;"/><polygon fill="#FFFFFF" points="181.4697,934.3511,192.6819,941.826,203.8941,934.3511,192.6819,926.8763,181.4697,934.3511" style="stroke: #383838; stroke-width: 1.868702290076336;"/><text fill="#000000" font-family="sans-serif" font-size="24.2931" lengthAdjust="spacingAndGlyphs" textLength="14.9496" x="196.2447" y="927.6331">n</text><text fill="#000000" font-family="sans-serif" font-size="24.2931" lengthAdjust="spacingAndGlyphs" textLength="14.9496" x="216.5455" y="928.3335">1</text><!--MD5=[79678fa46f61492a1547216000ef0ffb]
reverse link TravelDayReport to TravelDayTrace--><path d="M748.4153,728.906 C748.4153,728.906 748.4153,816.4547 748.4153,816.4547 " fill="none" id="TravelDayReport&lt;-TravelDayTrace" style="stroke: #383838; stroke-width: 1.868702290076336;"/><polygon fill="#383838" points="748.4153,704.6129,740.9405,715.8251,748.4153,727.0373,755.8901,715.8251,748.4153,704.6129" style="stroke: #383838; stroke-width: 1.868702290076336;"/><text fill="#000000" font-family="sans-serif" font-size="24.2931" lengthAdjust="spacingAndGlyphs" textLength="44.8489" x="686.6576" y="742.3296">0..1</text><text fill="#000000" font-family="sans-serif" font-size="24.2931" lengthAdjust="spacingAndGlyphs" textLength="14.9496" x="724.6944" y="796.7211">n</text><!--MD5=[80d6ea7a237949cce4bf6e5d049ed1eb]
reverse link RepoImage to ImageCategory--><path d="M372.8061,1069.6826 C372.8061,1069.6826 372.8061,1164.052 372.8061,1164.052 " fill="none" id="RepoImage&lt;-ImageCategory" style="stroke: #383838; stroke-width: 1.868702290076336;"/><polygon fill="#FFFFFF" points="372.8061,1045.3894,365.3313,1056.6016,372.8061,1067.8139,380.2809,1056.6016,372.8061,1045.3894" style="stroke: #383838; stroke-width: 1.868702290076336;"/><text fill="#000000" font-family="sans-serif" font-size="24.2931" lengthAdjust="spacingAndGlyphs" textLength="44.8489" x="317.621" y="1082.613">0..n</text><text fill="#000000" font-family="sans-serif" font-size="24.2931" lengthAdjust="spacingAndGlyphs" textLength="44.8489" x="315.0866" y="1143.9448">0..n</text><!--MD5=[cb79465eb3615f02deb709875413f878]
@startuml

scale 1224 width
hide footbox
hide empty description
hide empty members
skinparam monochrome true
skinparam linetype ortho

class Trip {
   id
   title: String
   startDate: Date
   endDate: Date
   type: Set<TripType>
   abstract: String
   cover: TitlePicture
   addReport(TravelDayReport)
   updateReport(TravelDayReport)
}

class TravelDayReport {
   id
   day: Int
   date: Date
   abstract: String
   keywords: Set<String>
   content: String
   imageSets: List<TravelDayImageSet>
   travelPath: List<TravelDayTrace>
}

class TravelDayTrace {
   trace: String
   format: Enum
   imageLocation: TravelDayImageSet
   traceColor: String
   toKml()
   toKmz()
}

class TripType {
   type: Enum
   logo: LogoImage
   label: String
}

enum LogoImage {
   id
   url: Url
   alt: String
}

class RepoImage {
   id
   title: String
   keywords: Set<String>
   url: Url
   description: String
   location: GeoLocation
}

class TripImage {
   url: Url
   caption: String
}

class TravelDayImageSet {
   id
   images: List<TripImage>
   caption: String
   geoLocation: GeoLocation
   displayStyle: Enum
   addImage(TripImage)
}

enum ImageCategory {
   key: String
   label: String
}

TripType "1 " - - "1..n " LogoImage
Trip "1" *- - "n  " TravelDayReport
Trip "1  " *- - "1..n" TripType

TravelDayReport "1  " *-left- "0..n  " TravelDayImageSet
TravelDayImageSet "1" *- - "1..n  " TripImage
TripImage "n" o-right- "1" RepoImage
TravelDayReport "0..1  " *- - "n " TravelDayTrace

RepoImage "0..n " o- - "0..n " ImageCategory
@enduml

PlantUML version 1.2019.11(Sun Sep 22 12:02:15 CEST 2019)
(GPL source distribution)
Java Runtime: Java(TM) SE Runtime Environment
JVM: Java HotSpot(TM) 64-Bit Server VM
Java Version: 11.0.4+10-LTS
Operating System: Mac OS X
Default Encoding: UTF-8
Language: en
Country: US
--></g></svg>