<?xml version="1.0" encoding="UTF-8" standalone="no"?><svg xmlns="http://www.w3.org/2000/svg" xmlns:xlink="http://www.w3.org/1999/xlink" contentScriptType="application/ecmascript" contentStyleType="text/css" height="1488.3721px" preserveAspectRatio="none" style="width:1557px;height:1488px;" version="1.1" viewBox="0 0 1557 1488" width="1557.2093px" zoomAndPan="magnify"><defs><filter height="300%" id="f1dbfufiwfx9tf" width="300%" x="-1" y="-1"><feGaussianBlur result="blurOut" stdDeviation="3.7209302325581395"/><feColorMatrix in="blurOut" result="blurOut2" type="matrix" values="0 0 0 0 0 0 0 0 0 0 0 0 0 0 0 0 0 0 .4 0"/><feOffset dx="7.441860465116279" dy="7.441860465116279" in="blurOut2" result="blurOut3"/><feBlend in="SourceGraphic" in2="blurOut3" mode="normal"/></filter></defs><g><!--MD5=[fcb2c32e298a59e44fe29bcacb176118]
cluster TripsContext--><rect fill="#E8E8E8" filter="url(#f1dbfufiwfx9tf)" height="1040" style="stroke: #000000; stroke-width: 2.7906976744186047;" width="1146.0465" x="40.9302" y="44.6512"/><path d="M234.4186,46.5116 L234.4186,62.3038 L215.814,80.9084 L40.9302,80.9084 " fill="none" style="stroke: #000000; stroke-width: 2.7906976744186047;"/><text fill="#000000" font-family="sans-serif" font-size="26.0465" font-weight="bold" lengthAdjust="spacingAndGlyphs" textLength="174.8837" x="46.5116" y="71.6933">TripsContext</text><!--MD5=[dd1f2b583cf60d06585cc899063fe1b0]
cluster ImagesContext--><rect fill="#E8E8E8" filter="url(#f1dbfufiwfx9tf)" height="338.6047" style="stroke: #000000; stroke-width: 2.7906976744186047;" width="697.6744" x="422.3256" y="1129.3023"/><path d="M641.8605,1131.1628 L641.8605,1146.9549 L623.2558,1165.5596 L422.3256,1165.5596 " fill="none" style="stroke: #000000; stroke-width: 2.7906976744186047;"/><text fill="#000000" font-family="sans-serif" font-size="26.0465" font-weight="bold" lengthAdjust="spacingAndGlyphs" textLength="200.9302" x="427.907" y="1156.3445">ImagesContext</text><!--MD5=[817b11fef30ad08ad6e2407a55d1d7be]
cluster PhotoAlbumContext--><rect fill="#9F9F9F" filter="url(#f1dbfufiwfx9tf)" height="911.6279" style="stroke: #000000; stroke-width: 2.7906976744186047;" width="305.1163" x="1231.6279" y="173.0233"/><path d="M1520,174.8837 L1520,190.6759 L1501.3953,209.2805 L1231.6279,209.2805 " fill="none" style="stroke: #000000; stroke-width: 2.7906976744186047;"/><text fill="#000000" font-family="sans-serif" font-size="26.0465" font-weight="bold" lengthAdjust="spacingAndGlyphs" textLength="269.7674" x="1237.2093" y="200.0654">PhotoAlbumContext</text><!--MD5=[18f5b4ccae6e62f3670d3aa352beb4cd]
class Trip--><rect fill="#F8F8F8" filter="url(#f1dbfufiwfx9tf)" height="306.2246" id="Trip" style="stroke: #383838; stroke-width: 2.7906976744186047;" width="338.6047" x="70.6977" y="114.4186"/><ellipse cx="209.7674" cy="144.186" fill="#C2C2C2" rx="20.4651" ry="20.4651" style="stroke: #383838; stroke-width: 1.8604651162790697;"/><path d="M214.3686,155.615 Q213.2876,156.171 212.0985,156.4489 Q210.9093,156.7269 209.5967,156.7269 Q204.9328,156.7269 202.4773,153.6537 Q200.0218,150.5805 200.0218,144.7738 Q200.0218,138.9517 202.4773,135.8785 Q204.9328,132.8052 209.5967,132.8052 Q210.9093,132.8052 212.1139,133.0832 Q213.3185,133.3612 214.3686,133.9172 L214.3686,138.9826 Q213.1949,137.9015 212.0908,137.3996 Q210.9866,136.8977 209.8129,136.8977 Q207.311,136.8977 206.037,138.8822 Q204.7629,140.8666 204.7629,144.7738 Q204.7629,148.6655 206.037,150.65 Q207.311,152.6344 209.8129,152.6344 Q210.9866,152.6344 212.0908,152.1325 Q213.1949,151.6306 214.3686,150.5496 Z "/><text fill="#000000" font-family="sans-serif" font-size="22.3256" lengthAdjust="spacingAndGlyphs" textLength="44.6512" x="247.907" y="152.6235">Trip</text><line style="stroke: #383838; stroke-width: 2.7906976744186047;" x1="72.5581" x2="407.4419" y1="173.9535" y2="173.9535"/><text fill="#000000" font-family="sans-serif" font-size="20.4651" lengthAdjust="spacingAndGlyphs" textLength="18.6047" x="81.8605" y="201.181">id</text><text fill="#000000" font-family="sans-serif" font-size="20.4651" lengthAdjust="spacingAndGlyphs" textLength="107.907" x="81.8605" y="225.2834">title: String</text><text fill="#000000" font-family="sans-serif" font-size="20.4651" lengthAdjust="spacingAndGlyphs" textLength="146.9767" x="81.8605" y="249.3859">startDate: Date</text><text fill="#000000" font-family="sans-serif" font-size="20.4651" lengthAdjust="spacingAndGlyphs" textLength="137.6744" x="81.8605" y="273.4884">endDate: Date</text><text fill="#000000" font-family="sans-serif" font-size="20.4651" lengthAdjust="spacingAndGlyphs" textLength="206.5116" x="81.8605" y="297.5908">type: Set&lt;TripType&gt;</text><text fill="#000000" font-family="sans-serif" font-size="20.4651" lengthAdjust="spacingAndGlyphs" textLength="152.5581" x="81.8605" y="321.6933">abstract: String</text><text fill="#000000" font-family="sans-serif" font-size="20.4651" lengthAdjust="spacingAndGlyphs" textLength="178.6047" x="81.8605" y="345.7958">cover: TitlePicture</text><line style="stroke: #383838; stroke-width: 2.7906976744186047;" x1="72.5581" x2="407.4419" y1="357.5545" y2="357.5545"/><text fill="#000000" font-family="sans-serif" font-size="20.4651" lengthAdjust="spacingAndGlyphs" textLength="284.6512" x="81.8605" y="384.782">addReport(TravelDayReport)</text><text fill="#000000" font-family="sans-serif" font-size="20.4651" lengthAdjust="spacingAndGlyphs" textLength="316.2791" x="81.8605" y="408.8844">updateReport(TravelDayReport)</text><!--MD5=[983f384ae73422b19c720e4c3430a2f6]
class TravelDayReport--><rect fill="#F8F8F8" filter="url(#f1dbfufiwfx9tf)" height="315.4433" id="TravelDayReport" style="stroke: #383838; stroke-width: 2.7906976744186047;" width="390.6977" x="474.4186" y="109.7674"/><ellipse cx="571.6279" cy="139.5349" fill="#C2C2C2" rx="20.4651" ry="20.4651" style="stroke: #383838; stroke-width: 1.8604651162790697;"/><path d="M576.2291,150.9638 Q575.1481,151.5198 573.9589,151.7978 Q572.7698,152.0758 571.4571,152.0758 Q566.7932,152.0758 564.3378,149.0025 Q561.8823,145.9293 561.8823,140.1226 Q561.8823,134.3005 564.3378,131.2273 Q566.7932,128.1541 571.4571,128.1541 Q572.7698,128.1541 573.9744,128.432 Q575.179,128.71 576.2291,129.266 L576.2291,134.3314 Q575.0554,133.2504 573.9512,132.7485 Q572.847,132.2465 571.6733,132.2465 Q569.1715,132.2465 567.8974,134.231 Q566.6234,136.2155 566.6234,140.1226 Q566.6234,144.0144 567.8974,145.9988 Q569.1715,147.9833 571.6733,147.9833 Q572.847,147.9833 573.9512,147.4814 Q575.0554,146.9795 576.2291,145.8984 Z "/><text fill="#000000" font-family="sans-serif" font-size="22.3256" lengthAdjust="spacingAndGlyphs" textLength="180.4651" x="609.7674" y="147.9724">TravelDayReport</text><line style="stroke: #383838; stroke-width: 2.7906976744186047;" x1="476.2791" x2="863.2558" y1="169.3023" y2="169.3023"/><text fill="#000000" font-family="sans-serif" font-size="20.4651" lengthAdjust="spacingAndGlyphs" textLength="18.6047" x="485.5814" y="196.5298">id</text><text fill="#000000" font-family="sans-serif" font-size="20.4651" lengthAdjust="spacingAndGlyphs" textLength="53.9535" x="485.5814" y="220.6323">tripId</text><text fill="#000000" font-family="sans-serif" font-size="20.4651" lengthAdjust="spacingAndGlyphs" textLength="72.5581" x="485.5814" y="244.7347">day: Int</text><text fill="#000000" font-family="sans-serif" font-size="20.4651" lengthAdjust="spacingAndGlyphs" textLength="98.6047" x="485.5814" y="268.8372">date: Date</text><text fill="#000000" font-family="sans-serif" font-size="20.4651" lengthAdjust="spacingAndGlyphs" textLength="206.5116" x="485.5814" y="292.9397">type: Set&lt;TripType&gt;</text><text fill="#000000" font-family="sans-serif" font-size="20.4651" lengthAdjust="spacingAndGlyphs" textLength="152.5581" x="485.5814" y="317.0422">abstract: String</text><text fill="#000000" font-family="sans-serif" font-size="20.4651" lengthAdjust="spacingAndGlyphs" textLength="228.8372" x="485.5814" y="341.1446">keywords: Set&lt;String&gt;</text><text fill="#000000" font-family="sans-serif" font-size="20.4651" lengthAdjust="spacingAndGlyphs" textLength="146.9767" x="485.5814" y="365.2471">content: String</text><text fill="#000000" font-family="sans-serif" font-size="20.4651" lengthAdjust="spacingAndGlyphs" textLength="368.3721" x="485.5814" y="389.3496">imageSets: List&lt;TravelDayImageSet&gt;</text><text fill="#000000" font-family="sans-serif" font-size="20.4651" lengthAdjust="spacingAndGlyphs" textLength="333.0233" x="485.5814" y="413.452">travelPath: List&lt;TravelDayTrace&gt;</text><!--MD5=[50dbfc70dcf35626be0843644364ce18]
class TravelDayTrace--><rect fill="#F8F8F8" filter="url(#f1dbfufiwfx9tf)" height="233.9172" id="TravelDayTrace" style="stroke: #383838; stroke-width: 2.7906976744186047;" width="485.5814" x="670.6977" y="537.6744"/><ellipse cx="820.9302" cy="567.4419" fill="#C2C2C2" rx="20.4651" ry="20.4651" style="stroke: #383838; stroke-width: 1.8604651162790697;"/><path d="M825.5314,578.8708 Q824.4504,579.4268 823.2613,579.7048 Q822.0721,579.9827 820.7594,579.9827 Q816.0956,579.9827 813.6401,576.9095 Q811.1846,573.8363 811.1846,568.0296 Q811.1846,562.2075 813.6401,559.1343 Q816.0956,556.061 820.7594,556.061 Q822.0721,556.061 823.2767,556.339 Q824.4813,556.617 825.5314,557.173 L825.5314,562.2384 Q824.3577,561.1573 823.2535,560.6554 Q822.1493,560.1535 820.9757,560.1535 Q818.4738,560.1535 817.1998,562.138 Q815.9257,564.1225 815.9257,568.0296 Q815.9257,571.9213 817.1998,573.9058 Q818.4738,575.8903 820.9757,575.8903 Q822.1493,575.8903 823.2535,575.3884 Q824.3577,574.8864 825.5314,573.8054 Z "/><text fill="#000000" font-family="sans-serif" font-size="22.3256" lengthAdjust="spacingAndGlyphs" textLength="169.3023" x="859.0698" y="575.8794">TravelDayTrace</text><line style="stroke: #383838; stroke-width: 2.7906976744186047;" x1="672.5581" x2="1154.4186" y1="597.2093" y2="597.2093"/><text fill="#000000" font-family="sans-serif" font-size="20.4651" lengthAdjust="spacingAndGlyphs" textLength="120.9302" x="681.8605" y="624.4368">trace: String</text><text fill="#000000" font-family="sans-serif" font-size="20.4651" lengthAdjust="spacingAndGlyphs" textLength="133.9535" x="681.8605" y="648.5392">format: Enum</text><text fill="#000000" font-family="sans-serif" font-size="20.4651" lengthAdjust="spacingAndGlyphs" textLength="463.2558" x="681.8605" y="672.6417">imageLocation: Set&lt;TravelDayImageLocation&gt;</text><text fill="#000000" font-family="sans-serif" font-size="20.4651" lengthAdjust="spacingAndGlyphs" textLength="176.7442" x="681.8605" y="696.7442">traceColor: String</text><line style="stroke: #383838; stroke-width: 2.7906976744186047;" x1="672.5581" x2="1154.4186" y1="708.5029" y2="708.5029"/><text fill="#000000" font-family="sans-serif" font-size="20.4651" lengthAdjust="spacingAndGlyphs" textLength="72.5581" x="681.8605" y="735.7304">toKml()</text><text fill="#000000" font-family="sans-serif" font-size="20.4651" lengthAdjust="spacingAndGlyphs" textLength="78.1395" x="681.8605" y="759.8328">toKmz()</text><!--MD5=[2c6ab32604a05f1f1f59a92a868d2c25]
class TravelImageLocation--><rect fill="#F8F8F8" filter="url(#f1dbfufiwfx9tf)" height="146.726" id="TravelImageLocation" style="stroke: #383838; stroke-width: 2.7906976744186047;" width="280.9302" x="773.0233" y="895.814"/><ellipse cx="801.7674" cy="925.5814" fill="#C2C2C2" rx="20.4651" ry="20.4651" style="stroke: #383838; stroke-width: 1.8604651162790697;"/><path d="M806.3686,937.0104 Q805.2876,937.5663 804.0985,937.8443 Q802.9093,938.1223 801.5967,938.1223 Q796.9328,938.1223 794.4773,935.0491 Q792.0218,931.9758 792.0218,926.1691 Q792.0218,920.347 794.4773,917.2738 Q796.9328,914.2006 801.5967,914.2006 Q802.9093,914.2006 804.1139,914.4786 Q805.3185,914.7565 806.3686,915.3125 L806.3686,920.3779 Q805.1949,919.2969 804.0908,918.795 Q802.9866,918.2931 801.8129,918.2931 Q799.311,918.2931 798.037,920.2775 Q796.7629,922.262 796.7629,926.1691 Q796.7629,930.0609 798.037,932.0453 Q799.311,934.0298 801.8129,934.0298 Q802.9866,934.0298 804.0908,933.5279 Q805.1949,933.026 806.3686,931.9449 Z "/><text fill="#000000" font-family="sans-serif" font-size="22.3256" lengthAdjust="spacingAndGlyphs" textLength="219.5349" x="828" y="934.0189">TravelImageLocation</text><line style="stroke: #383838; stroke-width: 2.7906976744186047;" x1="774.8837" x2="1052.093" y1="955.3488" y2="955.3488"/><text fill="#000000" font-family="sans-serif" font-size="20.4651" lengthAdjust="spacingAndGlyphs" textLength="18.6047" x="784.186" y="982.5763">id</text><text fill="#000000" font-family="sans-serif" font-size="20.4651" lengthAdjust="spacingAndGlyphs" textLength="163.7209" x="784.186" y="1006.6788">travelImageSetId</text><text fill="#000000" font-family="sans-serif" font-size="20.4651" lengthAdjust="spacingAndGlyphs" textLength="258.6047" x="784.186" y="1030.7813">geoLocation: GeoLocation</text><!--MD5=[cc015b41eed39c88bd076f3461e291c9]
class TripType--><rect fill="#F8F8F8" filter="url(#f1dbfufiwfx9tf)" height="146.726" id="TripType" style="stroke: #383838; stroke-width: 2.7906976744186047;" width="187.907" x="71.6279" y="581.3953"/><ellipse cx="112.9302" cy="611.1628" fill="#C2C2C2" rx="20.4651" ry="20.4651" style="stroke: #383838; stroke-width: 1.8604651162790697;"/><path d="M117.5314,622.5918 Q116.4504,623.1477 115.2613,623.4257 Q114.0721,623.7037 112.7594,623.7037 Q108.0956,623.7037 105.6401,620.6305 Q103.1846,617.5572 103.1846,611.7505 Q103.1846,605.9284 105.6401,602.8552 Q108.0956,599.782 112.7594,599.782 Q114.0721,599.782 115.2767,600.06 Q116.4813,600.3379 117.5314,600.8939 L117.5314,605.9593 Q116.3577,604.8783 115.2535,604.3764 Q114.1493,603.8745 112.9757,603.8745 Q110.4738,603.8745 109.1998,605.8589 Q107.9257,607.8434 107.9257,611.7505 Q107.9257,615.6423 109.1998,617.6267 Q110.4738,619.6112 112.9757,619.6112 Q114.1493,619.6112 115.2535,619.1093 Q116.3577,618.6074 117.5314,617.5263 Z "/><text fill="#000000" font-family="sans-serif" font-size="22.3256" lengthAdjust="spacingAndGlyphs" textLength="98.6047" x="141.9535" y="619.6003">TripType</text><line style="stroke: #383838; stroke-width: 2.7906976744186047;" x1="73.4884" x2="257.6744" y1="640.9302" y2="640.9302"/><text fill="#000000" font-family="sans-serif" font-size="20.4651" lengthAdjust="spacingAndGlyphs" textLength="109.7674" x="82.7907" y="668.1577">type: Enum</text><text fill="#000000" font-family="sans-serif" font-size="20.4651" lengthAdjust="spacingAndGlyphs" textLength="165.5814" x="82.7907" y="692.2602">logo: LogoImage</text><text fill="#000000" font-family="sans-serif" font-size="20.4651" lengthAdjust="spacingAndGlyphs" textLength="117.2093" x="82.7907" y="716.3626">label: String</text><!--MD5=[6ab16712a9ec8a66053c7b9e611831e3]
class LogoImage--><rect fill="#F8F8F8" filter="url(#f1dbfufiwfx9tf)" height="146.726" id="LogoImage" style="stroke: #383838; stroke-width: 2.7906976744186047;" width="174.8837" x="78.1395" y="895.814"/><ellipse cx="106.0465" cy="925.5814" fill="#ABABAB" rx="20.4651" ry="20.4651" style="stroke: #383838; stroke-width: 1.8604651162790697;"/><path d="M112.7707,937.6744 L98.4084,937.6744 L98.4084,914.6176 L112.7707,914.6176 L112.7707,918.6328 L102.9642,918.6328 L102.9642,923.6056 L111.8441,923.6056 L111.8441,927.6208 L102.9642,927.6208 L102.9642,933.6592 L112.7707,933.6592 Z "/><text fill="#000000" font-family="sans-serif" font-size="22.3256" lengthAdjust="spacingAndGlyphs" textLength="115.3488" x="132.093" y="934.0189">LogoImage</text><line style="stroke: #383838; stroke-width: 2.7906976744186047;" x1="80" x2="251.1628" y1="955.3488" y2="955.3488"/><text fill="#000000" font-family="sans-serif" font-size="20.4651" lengthAdjust="spacingAndGlyphs" textLength="18.6047" x="89.3023" y="982.5763">id</text><text fill="#000000" font-family="sans-serif" font-size="20.4651" lengthAdjust="spacingAndGlyphs" textLength="68.8372" x="89.3023" y="1006.6788">url: Url</text><text fill="#000000" font-family="sans-serif" font-size="20.4651" lengthAdjust="spacingAndGlyphs" textLength="94.8837" x="89.3023" y="1030.7813">alt: String</text><!--MD5=[9686fd23d5ba66d93ad65d1f0ecbd46c]
class TripImage--><rect fill="#F8F8F8" filter="url(#f1dbfufiwfx9tf)" height="170.8285" id="TripImage" style="stroke: #383838; stroke-width: 2.7906976744186047;" width="169.3023" x="458.6047" y="883.7209"/><ellipse cx="486.5116" cy="913.4884" fill="#C2C2C2" rx="20.4651" ry="20.4651" style="stroke: #383838; stroke-width: 1.8604651162790697;"/><path d="M491.1128,924.9173 Q490.0318,925.4733 488.8427,925.7513 Q487.6535,926.0293 486.3408,926.0293 Q481.677,926.0293 479.2215,922.956 Q476.766,919.8828 476.766,914.0761 Q476.766,908.254 479.2215,905.1808 Q481.677,902.1076 486.3408,902.1076 Q487.6535,902.1076 488.8581,902.3855 Q490.0627,902.6635 491.1128,903.2195 L491.1128,908.2849 Q489.9391,907.2039 488.8349,906.7019 Q487.7307,906.2 486.557,906.2 Q484.0552,906.2 482.7812,908.1845 Q481.5071,910.169 481.5071,914.0761 Q481.5071,917.9678 482.7812,919.9523 Q484.0552,921.9368 486.557,921.9368 Q487.7307,921.9368 488.8349,921.4349 Q489.9391,920.933 491.1128,919.8519 Z "/><text fill="#000000" font-family="sans-serif" font-size="22.3256" lengthAdjust="spacingAndGlyphs" textLength="109.7674" x="512.5581" y="921.9259">TripImage</text><line style="stroke: #383838; stroke-width: 2.7906976744186047;" x1="460.4651" x2="626.0465" y1="943.2558" y2="943.2558"/><text fill="#000000" font-family="sans-serif" font-size="20.4651" lengthAdjust="spacingAndGlyphs" textLength="107.907" x="469.7674" y="970.4833">title: String</text><text fill="#000000" font-family="sans-serif" font-size="20.4651" lengthAdjust="spacingAndGlyphs" textLength="68.8372" x="469.7674" y="994.5858">url: Url</text><text fill="#000000" font-family="sans-serif" font-size="20.4651" lengthAdjust="spacingAndGlyphs" textLength="145.1163" x="469.7674" y="1018.6882">caption: String</text><text fill="#000000" font-family="sans-serif" font-size="20.4651" lengthAdjust="spacingAndGlyphs" textLength="94.8837" x="469.7674" y="1042.7907">alt: String</text><!--MD5=[9de271188724ed563107a6e58609d080]
class TravelDayImageSet--><rect fill="#F8F8F8" filter="url(#f1dbfufiwfx9tf)" height="233.9172" id="TravelDayImageSet" style="stroke: #383838; stroke-width: 2.7906976744186047;" width="280.9302" x="324.6512" y="537.6744"/><ellipse cx="360.093" cy="567.4419" fill="#C2C2C2" rx="20.4651" ry="20.4651" style="stroke: #383838; stroke-width: 1.8604651162790697;"/><path d="M364.6942,578.8708 Q363.6132,579.4268 362.4241,579.7048 Q361.2349,579.9827 359.9222,579.9827 Q355.2584,579.9827 352.8029,576.9095 Q350.3474,573.8363 350.3474,568.0296 Q350.3474,562.2075 352.8029,559.1343 Q355.2584,556.061 359.9222,556.061 Q361.2349,556.061 362.4395,556.339 Q363.6441,556.617 364.6942,557.173 L364.6942,562.2384 Q363.5205,561.1573 362.4163,560.6554 Q361.3121,560.1535 360.1384,560.1535 Q357.6366,560.1535 356.3626,562.138 Q355.0885,564.1225 355.0885,568.0296 Q355.0885,571.9213 356.3626,573.9058 Q357.6366,575.8903 360.1384,575.8903 Q361.3121,575.8903 362.4163,575.3884 Q363.5205,574.8864 364.6942,573.8054 Z "/><text fill="#000000" font-family="sans-serif" font-size="22.3256" lengthAdjust="spacingAndGlyphs" textLength="204.6512" x="387.814" y="575.8794">TravelDayImageSet</text><line style="stroke: #383838; stroke-width: 2.7906976744186047;" x1="326.5116" x2="603.7209" y1="597.2093" y2="597.2093"/><text fill="#000000" font-family="sans-serif" font-size="20.4651" lengthAdjust="spacingAndGlyphs" textLength="18.6047" x="335.814" y="624.4368">id</text><text fill="#000000" font-family="sans-serif" font-size="20.4651" lengthAdjust="spacingAndGlyphs" textLength="251.1628" x="335.814" y="648.5392">images: List&lt;TripImage&gt;</text><text fill="#000000" font-family="sans-serif" font-size="20.4651" lengthAdjust="spacingAndGlyphs" textLength="145.1163" x="335.814" y="672.6417">caption: String</text><text fill="#000000" font-family="sans-serif" font-size="20.4651" lengthAdjust="spacingAndGlyphs" textLength="258.6047" x="335.814" y="696.7442">geoLocation: GeoLocation</text><text fill="#000000" font-family="sans-serif" font-size="20.4651" lengthAdjust="spacingAndGlyphs" textLength="184.186" x="335.814" y="720.8467">displayStyle: Enum</text><line style="stroke: #383838; stroke-width: 2.7906976744186047;" x1="326.5116" x2="603.7209" y1="732.6054" y2="732.6054"/><text fill="#000000" font-family="sans-serif" font-size="20.4651" lengthAdjust="spacingAndGlyphs" textLength="212.093" x="335.814" y="759.8328">addImage(TripImage)</text><!--MD5=[e9ae9027ba506b7fff6482c2f7448c93]
class RepoImage--><rect fill="#F8F8F8" filter="url(#f1dbfufiwfx9tf)" height="243.1359" id="RepoImage" style="stroke: #383838; stroke-width: 2.7906976744186047;" width="351.6279" x="737.6744" y="1194.4186"/><ellipse cx="845.1163" cy="1224.186" fill="#C2C2C2" rx="20.4651" ry="20.4651" style="stroke: #383838; stroke-width: 1.8604651162790697;"/><path d="M849.7175,1235.615 Q848.6364,1236.171 847.4473,1236.4489 Q846.2582,1236.7269 844.9455,1236.7269 Q840.2816,1236.7269 837.8261,1233.6537 Q835.3706,1230.5805 835.3706,1224.7738 Q835.3706,1218.9517 837.8261,1215.8785 Q840.2816,1212.8052 844.9455,1212.8052 Q846.2582,1212.8052 847.4628,1213.0832 Q848.6673,1213.3612 849.7175,1213.9172 L849.7175,1218.9826 Q848.5438,1217.9015 847.4396,1217.3996 Q846.3354,1216.8977 845.1617,1216.8977 Q842.6599,1216.8977 841.3858,1218.8822 Q840.1117,1220.8666 840.1117,1224.7738 Q840.1117,1228.6655 841.3858,1230.65 Q842.6599,1232.6344 845.1617,1232.6344 Q846.3354,1232.6344 847.4396,1232.1325 Q848.5438,1231.6306 849.7175,1230.5496 Z "/><text fill="#000000" font-family="sans-serif" font-size="22.3256" lengthAdjust="spacingAndGlyphs" textLength="120.9302" x="883.2558" y="1232.6235">RepoImage</text><line style="stroke: #383838; stroke-width: 2.7906976744186047;" x1="739.5349" x2="1087.4419" y1="1253.9535" y2="1253.9535"/><text fill="#000000" font-family="sans-serif" font-size="20.4651" lengthAdjust="spacingAndGlyphs" textLength="18.6047" x="748.8372" y="1281.181">id</text><text fill="#000000" font-family="sans-serif" font-size="20.4651" lengthAdjust="spacingAndGlyphs" textLength="107.907" x="748.8372" y="1305.2834">title: String</text><text fill="#000000" font-family="sans-serif" font-size="20.4651" lengthAdjust="spacingAndGlyphs" textLength="228.8372" x="748.8372" y="1329.3859">keywords: Set&lt;String&gt;</text><text fill="#000000" font-family="sans-serif" font-size="20.4651" lengthAdjust="spacingAndGlyphs" textLength="68.8372" x="748.8372" y="1353.4884">url: Url</text><text fill="#000000" font-family="sans-serif" font-size="20.4651" lengthAdjust="spacingAndGlyphs" textLength="184.186" x="748.8372" y="1377.5908">description: String</text><text fill="#000000" font-family="sans-serif" font-size="20.4651" lengthAdjust="spacingAndGlyphs" textLength="215.814" x="748.8372" y="1401.6933">location: GeoLocation</text><text fill="#000000" font-family="sans-serif" font-size="20.4651" lengthAdjust="spacingAndGlyphs" textLength="329.3023" x="748.8372" y="1425.7958">categories: Set&lt;ImageCategory&gt;</text><!--MD5=[cc9ba9a679d36643203143a8a4986f83]
class ImageCategory--><rect fill="#F8F8F8" filter="url(#f1dbfufiwfx9tf)" height="122.6235" id="ImageCategory" style="stroke: #383838; stroke-width: 2.7906976744186047;" width="219.5349" x="452.093" y="1254.8837"/><ellipse cx="480" cy="1284.6512" fill="#ABABAB" rx="20.4651" ry="20.4651" style="stroke: #383838; stroke-width: 1.8604651162790697;"/><path d="M486.7242,1296.7442 L472.3619,1296.7442 L472.3619,1273.6873 L486.7242,1273.6873 L486.7242,1277.7026 L476.9177,1277.7026 L476.9177,1282.6753 L485.7976,1282.6753 L485.7976,1286.6906 L476.9177,1286.6906 L476.9177,1292.7289 L486.7242,1292.7289 Z "/><text fill="#000000" font-family="sans-serif" font-size="22.3256" lengthAdjust="spacingAndGlyphs" textLength="160" x="506.0465" y="1293.0887">ImageCategory</text><line style="stroke: #383838; stroke-width: 2.7906976744186047;" x1="453.9535" x2="669.7674" y1="1314.4186" y2="1314.4186"/><text fill="#000000" font-family="sans-serif" font-size="20.4651" lengthAdjust="spacingAndGlyphs" textLength="104.186" x="463.2558" y="1341.6461">key: String</text><text fill="#000000" font-family="sans-serif" font-size="20.4651" lengthAdjust="spacingAndGlyphs" textLength="117.2093" x="463.2558" y="1365.7485">label: String</text><!--MD5=[631bb4887e934a2d8bda4081a44a50b1]
class ImageAlbum--><rect fill="#D8D8D8" filter="url(#f1dbfufiwfx9tf)" height="59.5349" id="ImageAlbum" style="stroke: #383838; stroke-width: 2.7906976744186047;" width="193.4884" x="1287.4419" y="238.1395"/><rect fill="#D8D8D8" height="59.5349" style="stroke: #383838; stroke-width: 2.7906976744186047;" width="193.4884" x="1287.4419" y="238.1395"/><ellipse cx="1315.3488" cy="267.907" fill="#C2C2C2" rx="20.4651" ry="20.4651" style="stroke: #383838; stroke-width: 1.8604651162790697;"/><path d="M1319.95,279.3359 Q1318.869,279.8919 1317.6799,280.1699 Q1316.4907,280.4479 1315.1781,280.4479 Q1310.5142,280.4479 1308.0587,277.3746 Q1305.6032,274.3014 1305.6032,268.4947 Q1305.6032,262.6726 1308.0587,259.5994 Q1310.5142,256.5262 1315.1781,256.5262 Q1316.4907,256.5262 1317.6953,256.8041 Q1318.8999,257.0821 1319.95,257.6381 L1319.95,262.7035 Q1318.7763,261.6225 1317.6721,261.1205 Q1316.568,260.6186 1315.3943,260.6186 Q1312.8924,260.6186 1311.6184,262.6031 Q1310.3443,264.5876 1310.3443,268.4947 Q1310.3443,272.3864 1311.6184,274.3709 Q1312.8924,276.3554 1315.3943,276.3554 Q1316.568,276.3554 1317.6721,275.8535 Q1318.7763,275.3516 1319.95,274.2705 Z "/><text fill="#000000" font-family="sans-serif" font-size="22.3256" lengthAdjust="spacingAndGlyphs" textLength="133.9535" x="1341.3953" y="276.3445">ImageAlbum</text><!--MD5=[2a0d02ea4eddc39dd8ca00857e1b8a69]
class AlbumPage--><rect fill="#D8D8D8" filter="url(#f1dbfufiwfx9tf)" height="59.5349" id="AlbumPage" style="stroke: #383838; stroke-width: 2.7906976744186047;" width="180.4651" x="1293.9535" y="625.1163"/><rect fill="#D8D8D8" height="59.5349" style="stroke: #383838; stroke-width: 2.7906976744186047;" width="180.4651" x="1293.9535" y="625.1163"/><ellipse cx="1321.8605" cy="654.8837" fill="#C2C2C2" rx="20.4651" ry="20.4651" style="stroke: #383838; stroke-width: 1.8604651162790697;"/><path d="M1326.4617,666.3127 Q1325.3806,666.8686 1324.1915,667.1466 Q1323.0024,667.4246 1321.6897,667.4246 Q1317.0258,667.4246 1314.5703,664.3514 Q1312.1148,661.2782 1312.1148,655.4715 Q1312.1148,649.6493 1314.5703,646.5761 Q1317.0258,643.5029 1321.6897,643.5029 Q1323.0024,643.5029 1324.2069,643.7809 Q1325.4115,644.0589 1326.4617,644.6148 L1326.4617,649.6802 Q1325.288,648.5992 1324.1838,648.0973 Q1323.0796,647.5954 1321.9059,647.5954 Q1319.4041,647.5954 1318.13,649.5799 Q1316.8559,651.5643 1316.8559,655.4715 Q1316.8559,659.3632 1318.13,661.3477 Q1319.4041,663.3321 1321.9059,663.3321 Q1323.0796,663.3321 1324.1838,662.8302 Q1325.288,662.3283 1326.4617,661.2473 Z "/><text fill="#000000" font-family="sans-serif" font-size="22.3256" lengthAdjust="spacingAndGlyphs" textLength="120.9302" x="1347.907" y="663.3212">AlbumPage</text><!--MD5=[0942703f80becb52396b4b38d305b17c]
class AlbumPageImage--><rect fill="#D8D8D8" filter="url(#f1dbfufiwfx9tf)" height="170.8285" id="AlbumPageImage" style="stroke: #383838; stroke-width: 2.7906976744186047;" width="245.5814" x="1261.3953" y="883.7209"/><rect fill="#D8D8D8" height="59.5349" style="stroke: #383838; stroke-width: 2.7906976744186047;" width="245.5814" x="1261.3953" y="883.7209"/><ellipse cx="1289.3023" cy="913.4884" fill="#C2C2C2" rx="20.4651" ry="20.4651" style="stroke: #383838; stroke-width: 1.8604651162790697;"/><path d="M1293.9035,924.9173 Q1292.8225,925.4733 1291.6334,925.7513 Q1290.4442,926.0293 1289.1315,926.0293 Q1284.4677,926.0293 1282.0122,922.956 Q1279.5567,919.8828 1279.5567,914.0761 Q1279.5567,908.254 1282.0122,905.1808 Q1284.4677,902.1076 1289.1315,902.1076 Q1290.4442,902.1076 1291.6488,902.3855 Q1292.8534,902.6635 1293.9035,903.2195 L1293.9035,908.2849 Q1292.7298,907.2039 1291.6256,906.7019 Q1290.5214,906.2 1289.3477,906.2 Q1286.8459,906.2 1285.5719,908.1845 Q1284.2978,910.169 1284.2978,914.0761 Q1284.2978,917.9678 1285.5719,919.9523 Q1286.8459,921.9368 1289.3477,921.9368 Q1290.5214,921.9368 1291.6256,921.4349 Q1292.7298,920.933 1293.9035,919.8519 Z "/><text fill="#000000" font-family="sans-serif" font-size="22.3256" lengthAdjust="spacingAndGlyphs" textLength="186.0465" x="1315.3488" y="921.9259">AlbumPageImage</text><line style="stroke: #383838; stroke-width: 2.7906976744186047;" x1="1263.2558" x2="1505.1163" y1="943.2558" y2="943.2558"/><text fill="#000000" font-family="sans-serif" font-size="20.4651" lengthAdjust="spacingAndGlyphs" textLength="171.1628" x="1272.5581" y="970.4833">image: TripImage</text><text fill="#000000" font-family="sans-serif" font-size="20.4651" lengthAdjust="spacingAndGlyphs" textLength="165.5814" x="1272.5581" y="994.5858">position: Offsets</text><text fill="#000000" font-family="sans-serif" font-size="20.4651" lengthAdjust="spacingAndGlyphs" textLength="145.1163" x="1272.5581" y="1018.6882">caption: String</text><text fill="#000000" font-family="sans-serif" font-size="20.4651" lengthAdjust="spacingAndGlyphs" textLength="163.7209" x="1272.5581" y="1042.7907">treatment: Enum</text><!--MD5=[2d379442334abbcbaceda75b9f82fdb3]
link TripType to LogoImage--><path d="M165.5814,728.5953 C165.5814,778.8837 165.5814,845.2093 165.5814,895.4977 " fill="none" id="TripType-LogoImage" style="stroke: #383838; stroke-width: 1.8604651162790697;"/><text fill="#000000" font-family="sans-serif" font-size="24.186" lengthAdjust="spacingAndGlyphs" textLength="14.8837" x="141.407" y="766.5665">1</text><text fill="#000000" font-family="sans-serif" font-size="24.186" lengthAdjust="spacingAndGlyphs" textLength="44.6512" x="117.093" y="875.9615">1..n</text><!--MD5=[07519996ce2005c1f01d606ba69be612]
reverse link Trip to TravelDayReport--><path d="M434.0465,267.907 C434.0465,267.907 474.1581,267.907 474.1581,267.907 " fill="none" id="Trip&lt;-TravelDayReport" style="stroke: #383838; stroke-width: 1.8604651162790697;"/><polygon fill="#383838" points="409.8605,267.907,421.0233,275.3488,432.186,267.907,421.0233,260.4651,409.8605,267.907" style="stroke: #383838; stroke-width: 1.8604651162790697;"/><text fill="#000000" font-family="sans-serif" font-size="24.186" lengthAdjust="spacingAndGlyphs" textLength="14.8837" x="423.9892" y="262.3241">1</text><text fill="#000000" font-family="sans-serif" font-size="24.186" lengthAdjust="spacingAndGlyphs" textLength="14.8837" x="444.3628" y="262.4102">n</text><!--MD5=[9f01bb3e391bc5335526ae4aca1e3694]
reverse link Trip to TripType--><path d="M165.5814,445.6 C165.5814,445.6 165.5814,581.2651 165.5814,581.2651 " fill="none" id="Trip&lt;-TripType" style="stroke: #383838; stroke-width: 1.8604651162790697;"/><polygon fill="#383838" points="165.5814,421.414,158.1395,432.5767,165.5814,443.7395,173.0233,432.5767,165.5814,421.414" style="stroke: #383838; stroke-width: 1.8604651162790697;"/><text fill="#000000" font-family="sans-serif" font-size="24.186" lengthAdjust="spacingAndGlyphs" textLength="14.8837" x="143.9186" y="458.7198">1</text><text fill="#000000" font-family="sans-serif" font-size="24.186" lengthAdjust="spacingAndGlyphs" textLength="44.6512" x="108.8488" y="561.2161">1..n</text><!--MD5=[fc44f06188bbad2acf8bdd3199bea97f]
reverse link TravelDayReport to TravelDayImageSet--><path d="M540,450.6047 C540,450.6047 540,537.4884 540,537.4884 " fill="none" id="TravelDayReport&lt;-TravelDayImageSet" style="stroke: #383838; stroke-width: 1.8604651162790697;"/><polygon fill="#383838" points="540,426.4186,532.5581,437.5814,540,448.7442,547.4419,437.5814,540,426.4186" style="stroke: #383838; stroke-width: 1.8604651162790697;"/><text fill="#000000" font-family="sans-serif" font-size="24.186" lengthAdjust="spacingAndGlyphs" textLength="14.8837" x="514.1824" y="463.6012">1</text><text fill="#000000" font-family="sans-serif" font-size="24.186" lengthAdjust="spacingAndGlyphs" textLength="44.6512" x="485.6817" y="517.8396">0..n</text><!--MD5=[ba75650430faba14472021b2e2b47a87]
reverse link TravelDayImageSet to TripImage--><path d="M532.093,797.0419 C532.093,797.0419 532.093,883.5721 532.093,883.5721 " fill="none" id="TravelDayImageSet&lt;-TripImage" style="stroke: #383838; stroke-width: 1.8604651162790697;"/><polygon fill="#383838" points="532.093,772.8558,524.6512,784.0186,532.093,795.1814,539.5349,784.0186,532.093,772.8558" style="stroke: #383838; stroke-width: 1.8604651162790697;"/><text fill="#000000" font-family="sans-serif" font-size="24.186" lengthAdjust="spacingAndGlyphs" textLength="14.8837" x="499.8721" y="809.8993">1</text><text fill="#000000" font-family="sans-serif" font-size="24.186" lengthAdjust="spacingAndGlyphs" textLength="44.6512" x="482.314" y="863.8539">1..n</text><!--MD5=[ee52e679a7498d04fda840184ed4d05c]
reverse link TripImage to RepoImage--><path d="M652.4837,969.3023 C652.4837,969.3023 755.3488,969.3023 755.3488,969.3023 C755.3488,969.3023 755.3488,1094.0465 755.3488,1193.9535 " fill="none" id="TripImage&lt;-RepoImage" style="stroke: #383838; stroke-width: 1.8604651162790697;"/><polygon fill="#FFFFFF" points="628.2977,969.3023,639.4605,976.7442,650.6233,969.3023,639.4605,961.8605,628.2977,969.3023" style="stroke: #383838; stroke-width: 1.8604651162790697;"/><text fill="#000000" font-family="sans-serif" font-size="24.186" lengthAdjust="spacingAndGlyphs" textLength="14.8837" x="642.9742" y="962.7959">n</text><text fill="#000000" font-family="sans-serif" font-size="24.186" lengthAdjust="spacingAndGlyphs" textLength="14.8837" x="722.3547" y="1174.5876">1</text><!--MD5=[79678fa46f61492a1547216000ef0ffb]
reverse link TravelDayReport to TravelDayTrace--><path d="M767.907,450.6047 C767.907,450.6047 767.907,537.4884 767.907,537.4884 " fill="none" id="TravelDayReport&lt;-TravelDayTrace" style="stroke: #383838; stroke-width: 1.8604651162790697;"/><polygon fill="#383838" points="767.907,426.4186,760.4651,437.5814,767.907,448.7442,775.3488,437.5814,767.907,426.4186" style="stroke: #383838; stroke-width: 1.8604651162790697;"/><text fill="#000000" font-family="sans-serif" font-size="24.186" lengthAdjust="spacingAndGlyphs" textLength="44.6512" x="713.8205" y="463.6012">0..1</text><text fill="#000000" font-family="sans-serif" font-size="24.186" lengthAdjust="spacingAndGlyphs" textLength="14.8837" x="735.3299" y="517.8396">n</text><!--MD5=[90d8d78cec48c690a0593c5d70b2dd11]
link TravelDayTrace to TravelImageLocation--><path d="M913.4884,772.8558 C913.4884,772.8558 913.4884,871.2558 913.4884,871.2558 " fill="none" id="TravelDayTrace-&gt;TravelImageLocation" style="stroke: #383838; stroke-width: 1.8604651162790697;"/><polygon fill="#383838" points="913.4884,895.4419,920.9302,884.2791,913.4884,873.1163,906.0465,884.2791,913.4884,895.4419" style="stroke: #383838; stroke-width: 1.8604651162790697;"/><text fill="#000000" font-family="sans-serif" font-size="24.186" lengthAdjust="spacingAndGlyphs" textLength="14.8837" x="882.186" y="809.8993">n</text><text fill="#000000" font-family="sans-serif" font-size="24.186" lengthAdjust="spacingAndGlyphs" textLength="44.6512" x="848.8372" y="875.8961">0..1</text><!--MD5=[4ce8496faddf144aa6ba05afcb932290]
link ImageCategory to RepoImage--><path d="M671.6651,1317.2093 C671.6651,1317.2093 713.2837,1317.2093 713.2837,1317.2093 " fill="none" id="ImageCategory-&gt;RepoImage" style="stroke: #383838; stroke-width: 1.8604651162790697;"/><polygon fill="#FFFFFF" points="737.4698,1317.2093,726.307,1309.7674,715.1442,1317.2093,726.307,1324.6512,737.4698,1317.2093" style="stroke: #383838; stroke-width: 1.8604651162790697;"/><!--MD5=[5154803a46dc0503e2b3dc07fc0e58bb]
reverse link AlbumPageImage to RepoImage--><path d="M1236.4651,969.3023 C1236.4651,969.3023 1071.6279,969.3023 1071.6279,969.3023 C1071.6279,969.3023 1071.6279,1094.0465 1071.6279,1193.9535 " fill="none" id="AlbumPageImage&lt;-RepoImage" style="stroke: #383838; stroke-width: 1.8604651162790697;"/><polygon fill="#FFFFFF" points="1260.6512,969.3023,1249.4884,961.8605,1238.3256,969.3023,1249.4884,976.7442,1260.6512,969.3023" style="stroke: #383838; stroke-width: 1.8604651162790697;"/><text fill="#000000" font-family="sans-serif" font-size="24.186" lengthAdjust="spacingAndGlyphs" textLength="14.8837" x="1201.6419" y="963.4497">1</text><text fill="#000000" font-family="sans-serif" font-size="24.186" lengthAdjust="spacingAndGlyphs" textLength="14.8837" x="1041.8314" y="1174.5876">1</text><!--MD5=[3a17053d2a16d931609772afd3c31ba2]
link AlbumPage to AlbumPageImage--><path d="M1384.186,685.0233 C1384.186,730.214 1384.186,817.2465 1384.186,883.1628 " fill="none" id="AlbumPage-AlbumPageImage" style="stroke: #383838; stroke-width: 1.8604651162790697;"/><text fill="#000000" font-family="sans-serif" font-size="24.186" lengthAdjust="spacingAndGlyphs" textLength="14.8837" x="1366.8372" y="723.1078">1</text><text fill="#000000" font-family="sans-serif" font-size="24.186" lengthAdjust="spacingAndGlyphs" textLength="44.6512" x="1336.2558" y="864.0046">1..n</text><!--MD5=[f8a69e4f584eebec206d41bb77e54051]
link ImageAlbum to AlbumPage--><path d="M1384.186,298.2698 C1384.186,370.6047 1384.186,552.4651 1384.186,624.6512 " fill="none" id="ImageAlbum-AlbumPage" style="stroke: #383838; stroke-width: 1.8604651162790697;"/><text fill="#000000" font-family="sans-serif" font-size="24.186" lengthAdjust="spacingAndGlyphs" textLength="14.8837" x="1366.9302" y="335.8707">1</text><text fill="#000000" font-family="sans-serif" font-size="24.186" lengthAdjust="spacingAndGlyphs" textLength="44.6512" x="1331.8605" y="605.0375">0..n</text><!--MD5=[fa2c07e4ed535b768b60d7515aa6b034]
@startuml

scale 1600 width
hide footbox
hide empty description
hide empty members
skinparam monochrome true
skinparam linetype ortho
allowmixing

frame TripsContext #e8e8e8 {
    class Trip {
       id
       title: String
       startDate: Date
       endDate: Date
       type: Set<TripType>
       abstract: String
       cover: TitlePicture

       addReport(TravelDayReport)
       updateReport(TravelDayReport)
    }

    class TravelDayReport {
       id
       tripId
       day: Int
       date: Date
       type: Set<TripType>
       abstract: String
       keywords: Set<String>
       content: String
       imageSets: List<TravelDayImageSet>
       travelPath: List<TravelDayTrace>
    }

    class TravelDayTrace {
       trace: String
       format: Enum
       imageLocation: Set<TravelDayImageLocation>
       traceColor: String
       toKml()
       toKmz()
    }

    class TravelImageLocation {
       id
       travelImageSetId
       geoLocation: GeoLocation
    }

    class TripType {
       type: Enum
       logo: LogoImage
       label: String
    }

    enum LogoImage {
       id
       url: Url
       alt: String
    }
    class TripImage {
       title: String
       url: Url
       caption: String
       alt: String
    }

    class TravelDayImageSet {
       id
       images: List<TripImage>
       caption: String
       geoLocation: GeoLocation
       displayStyle: Enum
       addImage(TripImage)
    }
}

frame ImagesContext #e8e8e8 {
    class RepoImage {
       id
       title: String
       keywords: Set<String>
       url: Url
       description: String
       location: GeoLocation
       categories: Set<ImageCategory>
    }


    enum ImageCategory {
       key: String
       label: String
    }
}

frame PhotoAlbumContext #a0a0a0 {
    class ImageAlbum #d8d8d8
    class AlbumPage #d8d8d8
    class AlbumPageImage #d8d8d8 {
        image: TripImage
        position: Offsets
        caption: String
        treatment: Enum
    }
}

TripType "1 " - - "1..n" LogoImage
Trip "1" *-right- "n" TravelDayReport
Trip "1" *- - "1..n " TripType

TravelDayReport "1" *- - "0..n  " TravelDayImageSet
TravelDayImageSet "1   " *- - "1..n"  TripImage
TripImage "n  " o- - "1" RepoImage
TravelDayReport "0..1  " *- - "n" TravelDayTrace
TravelImageLocation "0..1  " *-u- "n  " TravelDayTrace

RepoImage o-left- ImageCategory
AlbumPageImage "1    " o- - "1    " RepoImage
AlbumPage "1" - - "1..n" AlbumPageImage
ImageAlbum "1" - - "0..n" AlbumPage
@enduml

PlantUML version 1.2019.11(Sun Sep 22 12:02:15 CEST 2019)
(GPL source distribution)
Java Runtime: Java(TM) SE Runtime Environment
JVM: Java HotSpot(TM) 64-Bit Server VM
Java Version: 11.0.4+10-LTS
Operating System: Mac OS X
Default Encoding: UTF-8
Language: en
Country: US
--></g></svg>