<?xml version="1.0" encoding="UTF-8" standalone="no"?><svg xmlns="http://www.w3.org/2000/svg" xmlns:xlink="http://www.w3.org/1999/xlink" contentScriptType="application/ecmascript" contentStyleType="text/css" height="423.2506px" preserveAspectRatio="none" style="width:490px;height:423px;" version="1.1" viewBox="0 0 490 423" width="490.9707px" zoomAndPan="magnify"><defs><filter height="300%" id="funtv413whesn" width="300%" x="-1" y="-1"><feGaussianBlur result="blurOut" stdDeviation="2.2573363431151243"/><feColorMatrix in="blurOut" result="blurOut2" type="matrix" values="0 0 0 0 0 0 0 0 0 0 0 0 0 0 0 0 0 0 .4 0"/><feOffset dx="4.514672686230249" dy="4.514672686230249" in="blurOut2" result="blurOut3"/><feBlend in="SourceGraphic" in2="blurOut3" mode="normal"/></filter></defs><g><!--MD5=[83630c7fc3785eddd69b1cb306caba9e]
class KeyService--><rect fill="#F8F8F8" filter="url(#funtv413whesn)" height="36.1174" id="KeyService" style="stroke: #383838; stroke-width: 1.6930022573363432;" width="104.9661" x="6.772" y="374.7178"/><ellipse cx="23.702" cy="392.7765" fill="#C2C2C2" rx="12.4153" ry="12.4153" style="stroke: #383838; stroke-width: 1.1286681715575622;"/><path d="M26.4934,399.71 Q25.8376,400.0473 25.1162,400.2159 Q24.3948,400.3846 23.5984,400.3846 Q20.769,400.3846 19.2794,398.5202 Q17.7898,396.6558 17.7898,393.1331 Q17.7898,389.601 19.2794,387.7366 Q20.769,385.8722 23.5984,385.8722 Q24.3948,385.8722 25.1255,386.0409 Q25.8563,386.2095 26.4934,386.5468 L26.4934,389.6198 Q25.7814,388.964 25.1115,388.6595 Q24.4416,388.355 23.7296,388.355 Q22.2118,388.355 21.4389,389.5589 Q20.666,390.7628 20.666,393.1331 Q20.666,395.494 21.4389,396.6979 Q22.2118,397.9018 23.7296,397.9018 Q24.4416,397.9018 25.1115,397.5973 Q25.7814,397.2928 26.4934,396.637 Z "/><text fill="#000000" font-family="sans-serif" font-size="13.544" lengthAdjust="spacingAndGlyphs" textLength="68.8488" x="39.5034" y="397.8952">KeyService</text><!--MD5=[ddea70da627106f10bdcaaa15f7d8af7]
class AppComponent--><rect fill="#F8F8F8" filter="url(#funtv413whesn)" height="36.1174" id="AppComponent" style="stroke: #383838; stroke-width: 1.6930022573363432;" width="137.6975" x="111.1738" y="9.0293"/><ellipse cx="128.1038" cy="27.088" fill="#C2C2C2" rx="12.4153" ry="12.4153" style="stroke: #383838; stroke-width: 1.1286681715575622;"/><path d="M130.8952,34.0215 Q130.2394,34.3588 129.518,34.5274 Q128.7966,34.6961 128.0002,34.6961 Q125.1708,34.6961 123.6812,32.8317 Q122.1916,30.9673 122.1916,27.4446 Q122.1916,23.9126 123.6812,22.0482 Q125.1708,20.1838 128.0002,20.1838 Q128.7966,20.1838 129.5273,20.3524 Q130.2581,20.521 130.8952,20.8583 L130.8952,23.9313 Q130.1832,23.2755 129.5133,22.971 Q128.8434,22.6665 128.1314,22.6665 Q126.6136,22.6665 125.8407,23.8704 Q125.0678,25.0743 125.0678,27.4446 Q125.0678,29.8055 125.8407,31.0094 Q126.6136,32.2133 128.1314,32.2133 Q128.8434,32.2133 129.5133,31.9088 Q130.1832,31.6044 130.8952,30.9485 Z "/><text fill="#000000" font-family="sans-serif" font-size="13.544" lengthAdjust="spacingAndGlyphs" textLength="101.5801" x="143.9052" y="32.2067">AppComponent</text><!--MD5=[e17b787d69906b3f274da0ab749c8979]
class ComponentA--><rect fill="#F8F8F8" filter="url(#funtv413whesn)" height="36.1174" id="ComponentA" style="stroke: #383838; stroke-width: 1.6930022573363432;" width="119.6388" x="41.1964" y="112.8668"/><ellipse cx="58.1264" cy="130.9255" fill="#C2C2C2" rx="12.4153" ry="12.4153" style="stroke: #383838; stroke-width: 1.1286681715575622;"/><path d="M60.9178,137.859 Q60.262,138.1963 59.5406,138.3649 Q58.8192,138.5335 58.0228,138.5335 Q55.1934,138.5335 53.7038,136.6692 Q52.2141,134.8048 52.2141,131.2821 Q52.2141,127.75 53.7038,125.8856 Q55.1934,124.0212 58.0228,124.0212 Q58.8192,124.0212 59.5499,124.1899 Q60.2807,124.3585 60.9178,124.6958 L60.9178,127.7688 Q60.2057,127.1129 59.5359,126.8085 Q58.866,126.504 58.154,126.504 Q56.6362,126.504 55.8633,127.7079 Q55.0904,128.9118 55.0904,131.2821 Q55.0904,133.643 55.8633,134.8469 Q56.6362,136.0508 58.154,136.0508 Q58.866,136.0508 59.5359,135.7463 Q60.2057,135.4418 60.9178,134.786 Z "/><text fill="#000000" font-family="sans-serif" font-size="13.544" lengthAdjust="spacingAndGlyphs" textLength="83.5214" x="73.9278" y="136.0442">ComponentA</text><!--MD5=[2d23e4e546ad390fcff8976b2772dab8]
class ComponentB--><rect fill="#F8F8F8" filter="url(#funtv413whesn)" height="36.1174" id="ComponentB" style="stroke: #383838; stroke-width: 1.6930022573363432;" width="118.5102" x="200.9029" y="112.8668"/><ellipse cx="217.833" cy="130.9255" fill="#C2C2C2" rx="12.4153" ry="12.4153" style="stroke: #383838; stroke-width: 1.1286681715575622;"/><path d="M220.6243,137.859 Q219.9685,138.1963 219.2471,138.3649 Q218.5257,138.5335 217.7293,138.5335 Q214.9,138.5335 213.4103,136.6692 Q211.9207,134.8048 211.9207,131.2821 Q211.9207,127.75 213.4103,125.8856 Q214.9,124.0212 217.7293,124.0212 Q218.5257,124.0212 219.2565,124.1899 Q219.9872,124.3585 220.6243,124.6958 L220.6243,127.7688 Q219.9123,127.1129 219.2424,126.8085 Q218.5725,126.504 217.8605,126.504 Q216.3428,126.504 215.5698,127.7079 Q214.7969,128.9118 214.7969,131.2821 Q214.7969,133.643 215.5698,134.8469 Q216.3428,136.0508 217.8605,136.0508 Q218.5725,136.0508 219.2424,135.7463 Q219.9123,135.4418 220.6243,134.786 Z "/><text fill="#000000" font-family="sans-serif" font-size="13.544" lengthAdjust="spacingAndGlyphs" textLength="82.3928" x="233.6343" y="136.0442">ComponentB</text><!--MD5=[e6d1a495bc7bb1d100b4f2c4ad4e5681]
class ComponentC--><rect fill="#F8F8F8" filter="url(#funtv413whesn)" height="36.1174" id="ComponentC" style="stroke: #383838; stroke-width: 1.6930022573363432;" width="119.6388" x="359.4808" y="112.8668"/><ellipse cx="376.4108" cy="130.9255" fill="#C2C2C2" rx="12.4153" ry="12.4153" style="stroke: #383838; stroke-width: 1.1286681715575622;"/><path d="M379.2022,137.859 Q378.5464,138.1963 377.825,138.3649 Q377.1036,138.5335 376.3072,138.5335 Q373.4778,138.5335 371.9882,136.6692 Q370.4986,134.8048 370.4986,131.2821 Q370.4986,127.75 371.9882,125.8856 Q373.4778,124.0212 376.3072,124.0212 Q377.1036,124.0212 377.8343,124.1899 Q378.5651,124.3585 379.2022,124.6958 L379.2022,127.7688 Q378.4902,127.1129 377.8203,126.8085 Q377.1504,126.504 376.4384,126.504 Q374.9206,126.504 374.1477,127.7079 Q373.3748,128.9118 373.3748,131.2821 Q373.3748,133.643 374.1477,134.8469 Q374.9206,136.0508 376.4384,136.0508 Q377.1504,136.0508 377.8203,135.7463 Q378.4902,135.4418 379.2022,134.786 Z "/><text fill="#000000" font-family="sans-serif" font-size="13.544" lengthAdjust="spacingAndGlyphs" textLength="83.5214" x="392.2122" y="136.0442">ComponentC</text><!--MD5=[60f7db842c5e376096cbdd1b5878f6e0]
class AbstractKeypress--><rect fill="#F8F8F8" filter="url(#funtv413whesn)" height="90.4919" id="AbstractKeypress" style="stroke: #383838; stroke-width: 1.6930022573363432;" width="191.8736" x="102.1445" y="216.7043"/><ellipse cx="137.8668" cy="238.2989" fill="#CDCDCD" rx="12.4153" ry="12.4153" style="stroke: #383838; stroke-width: 1.1286681715575622;"/><path d="M137.9947,233.3307 L136.6924,239.055 L139.3063,239.055 Z M136.3083,230.8011 L139.6904,230.8011 L143.4661,244.7887 L140.7023,244.7887 L139.8403,241.3316 L136.1396,241.3316 L135.2965,244.7887 L132.5326,244.7887 Z "/><text fill="#000000" font-family="sans-serif" font-size="13.544" font-style="italic" lengthAdjust="spacingAndGlyphs" textLength="66.5914" x="181.5463" y="235.4419">«abstract»</text><text fill="#000000" font-family="sans-serif" font-size="13.544" font-style="italic" lengthAdjust="spacingAndGlyphs" textLength="113.9955" x="157.8442" y="251.3932">AbstractKeypress</text><line style="stroke: #383838; stroke-width: 1.6930022573363432;" x1="103.2731" x2="292.8894" y1="259.8935" y2="259.8935"/><text fill="#000000" font-family="sans-serif" font-size="12.4153" lengthAdjust="spacingAndGlyphs" textLength="178.3296" x="108.9165" y="276.4113">keyActions: {string: Function}</text><line style="stroke: #383838; stroke-width: 1.6930022573363432;" x1="103.2731" x2="292.8894" y1="283.5448" y2="283.5448"/><text fill="#000000" font-family="sans-serif" font-size="12.4153" lengthAdjust="spacingAndGlyphs" textLength="110.6095" x="108.9165" y="300.0626">reactToKeypress()</text><!--MD5=[54605eb0bb7bb27fb9256c505c0609a1]
link ComponentA to AbstractKeypress--><path d="M131.4898,149.1309 C131.4898,149.1309 131.4898,193.6117 131.4898,193.6117 " fill="none" id="ComponentA-&gt;AbstractKeypress" style="stroke: #383838; stroke-width: 1.1286681715575622;"/><polygon fill="none" points="139.3905,193.6117,131.4898,216.1851,123.5892,193.6117,139.3905,193.6117" style="stroke: #383838; stroke-width: 1.1286681715575622;"/><!--MD5=[deeabb1f5bc7439c4a33579663bd1cd8]
link ComponentB to AbstractKeypress--><path d="M247.4605,149.1309 C247.4605,149.1309 247.4605,193.6117 247.4605,193.6117 " fill="none" id="ComponentB-&gt;AbstractKeypress" style="stroke: #383838; stroke-width: 1.1286681715575622;"/><polygon fill="none" points="255.3612,193.6117,247.4605,216.1851,239.5598,193.6117,255.3612,193.6117" style="stroke: #383838; stroke-width: 1.1286681715575622;"/><!--MD5=[203ff748b4b29f0f409c6af19ed31c8a]
link ComponentC to AbstractKeypress--><path d="M419.3002,149.1309 C419.3002,185.1016 419.3002,261.851 419.3002,261.851 C419.3002,261.851 316.7156,261.851 316.7156,261.851 " fill="none" id="ComponentC-&gt;AbstractKeypress" style="stroke: #383838; stroke-width: 1.1286681715575622;"/><polygon fill="none" points="316.7156,269.7517,294.1422,261.851,316.7156,253.9503,316.7156,269.7517" style="stroke: #383838; stroke-width: 1.1286681715575622;"/><!--MD5=[4f90b5b1f7f66091e595b2f954cbbf23]
link AppComponent to ComponentA--><path d="M136.0045,45.1806 C136.0045,45.1806 136.0045,107.0542 136.0045,107.0542 " fill="none" id="AppComponent-&gt;ComponentA" style="stroke: #383838; stroke-width: 1.1286681715575622; stroke-dasharray: 7.0,7.0;"/><polygon fill="#383838" points="136.0045,112.6975,140.5192,102.5395,136.0045,107.0542,131.4898,102.5395,136.0045,112.6975" style="stroke: #383838; stroke-width: 1.1286681715575622;"/><!--MD5=[671f937b99e8b43ffd68461f64ee8bd5]
link AppComponent to ComponentB--><path d="M224.8871,45.1806 C224.8871,45.1806 224.8871,107.0542 224.8871,107.0542 " fill="none" id="AppComponent-&gt;ComponentB" style="stroke: #383838; stroke-width: 1.1286681715575622; stroke-dasharray: 7.0,7.0;"/><polygon fill="#383838" points="224.8871,112.6975,229.4018,102.5395,224.8871,107.0542,220.3725,102.5395,224.8871,112.6975" style="stroke: #383838; stroke-width: 1.1286681715575622;"/><!--MD5=[6a522bece0f165bb7d0c98d764237216]
link AppComponent to ComponentC--><path d="M248.9052,27.088 C319.5937,27.088 419.3002,27.088 419.3002,27.088 C419.3002,27.088 419.3002,107.1896 419.3002,107.1896 " fill="none" id="AppComponent-&gt;ComponentC" style="stroke: #383838; stroke-width: 1.1286681715575622; stroke-dasharray: 7.0,7.0;"/><polygon fill="#383838" points="419.3002,112.833,423.8149,102.6749,419.3002,107.1896,414.7856,102.6749,419.3002,112.833" style="stroke: #383838; stroke-width: 1.1286681715575622;"/><!--MD5=[f15548209bf8e11fda81dbf3e4b2f03b]
link AppComponent to KeyService--><path d="M111.1287,27.088 C69.3228,27.088 23.9842,27.088 23.9842,27.088 C23.9842,27.088 23.9842,368.9955 23.9842,368.9955 " fill="none" id="AppComponent-&gt;KeyService" style="stroke: #383838; stroke-width: 1.1286681715575622; stroke-dasharray: 7.0,7.0;"/><polygon fill="#383838" points="23.9842,374.6388,28.4989,364.4808,23.9842,368.9955,19.4695,364.4808,23.9842,374.6388" style="stroke: #383838; stroke-width: 1.1286681715575622;"/><!--MD5=[44f1f162d5507406fe8fbc3ba675bc5b]
link AbstractKeypress to KeyService--><path d="M106.9413,307.2799 C106.9413,307.2799 106.9413,369.0632 106.9413,369.0632 " fill="none" id="AbstractKeypress-&gt;KeyService" style="stroke: #383838; stroke-width: 1.1286681715575622; stroke-dasharray: 7.0,7.0;"/><polygon fill="#383838" points="106.9413,374.7065,111.456,364.5485,106.9413,369.0632,102.4266,364.5485,106.9413,374.7065" style="stroke: #383838; stroke-width: 1.1286681715575622;"/><!--MD5=[488f1ce361532c372dd528fb0e0a0c51]
@startuml

scale 500 width
skinparam monochrome true
skinparam linetype ortho
hide empty members

class KeyService
class AppComponent
class ComponentA
class ComponentB
class ComponentC
abstract AbstractKeypress <<abstract>> {
  reactToKeypress()
  keyActions: {string: Function}
}

ComponentA - -|> AbstractKeypress
ComponentB - -|> AbstractKeypress
ComponentC - -|> AbstractKeypress

AppComponent ..> ComponentA
AppComponent ..> ComponentB
AppComponent ..> ComponentC

AppComponent ..> KeyService
AbstractKeypress ..> KeyService
@enduml

PlantUML version 1.2019.11(Sun Sep 22 12:02:15 CEST 2019)
(GPL source distribution)
Java Runtime: Java(TM) SE Runtime Environment
JVM: Java HotSpot(TM) 64-Bit Server VM
Java Version: 11.0.4+10-LTS
Operating System: Mac OS X
Default Encoding: UTF-8
Language: en
Country: US
--></g></svg>