<svg viewBox="0 0 64 64" height="64" width="64"
     xmlns="http://www.w3.org/2000/svg">
    <circle cx="47" cy="53" fill="#4a3030" r="3"/>
    <circle cx="17" cy="53" fill="#4a3030" r="3"/>
    <path d="m20 2h-6c-1.105 0-2 .895-2 2v4c0 1.105.895 2 2 2h6c1.105 0 2-.895 2-2v-4c0-1.105-.895-2-2-2z"
          fill="#4a3030"/>
    <g fill="#4a303">
        <path d="m1 61v2h62v-2h-16-30z"/>
        <path d="m47 49c-2.206 0-4 1.794-4 4s1.794 4 4 4 4-1.794 4-4-1.794-4-4-4zm0 6c-1.103 0-2-.897-2-2s.897-2 2-2 2 .897 2 2-.897 2-2 2z"/>
        <path d="m17 49c-2.206 0-4 1.794-4 4s1.794 4 4 4 4-1.794 4-4-1.794-4-4-4zm0 6c-1.103 0-2-.897-2-2s.897-2 2-2 2 .897 2 2-.897 2-2 2z"/>
        <path d="m58.396 27.543c-1.018-2.718-3.652-4.543-6.554-4.543h-2.842v-2h2v-2h-2.111c1.301-1.272 2.111-3.042 2.111-5 0-3.859-3.141-7-7-7s-7 3.141-7 7c0 1.958.81 3.728 2.111 5h-2.295c.112-.314.184-.648.184-1v-4-2c0-1.654-1.346-3-3-3h-6c-.771 0-1.468.301-2 .78-.532-.479-1.229-.78-2-.78h-1.184c.112-.314.184-.648.184-1v-4c0-1.654-1.346-3-3-3h-6c-1.654 0-3 1.346-3 3v4c0 .395.081.77.22 1.116-1.275.345-2.22 1.501-2.22 2.884v6c0 .352.072.686.184 1h-2.184v2h2v2h-1c-3.859 0-7 3.141-7 7v23c0 .553.447 1 1 1h7.069c.495 3.94 3.859 7 7.931 7s7.436-3.06 7.931-7h14.139c.495 3.94 3.859 7 7.931 7s7.436-3.06 7.931-7h7.068c.553 0 1-.447 1-1v-13c0-.12-.021-.239-.063-.352zm-19.396-13.543c0-2.757 2.243-5 5-5s5 2.243 5 5-2.243 5-5 5-5-2.243-5-5zm-11-3h6c.552 0 1 .448 1 1v6c0 .552-.448 1-1 1h-6c-.552 0-1-.448-1-1v-6c0-.552.448-1 1-1zm-15-7c0-.552.448-1 1-1h6c.552 0 1 .448 1 1v4c0 .552-.448 1-1 1h-6c-.552 0-1-.448-1-1zm-2 14v-6c0-.552.448-1 1-1h2 6 4c.552 0 1 .448 1 1v6c0 .552-.448 1-1 1h-12c-.552 0-1-.448-1-1zm0 3h1 12 4 6 13v2h-36zm-3 4h43.842c2.073 0 3.954 1.304 4.682 3.245l4.476 11.937v1.818h-3c-.553 0-1 .447-1 1v9h-2.069c-.495-3.94-3.859-7-7.931-7-3.04 0-5.689 1.705-7.042 4.209.015-.07.042-.135.042-.209v-21c0-.553-.447-1-1-1h-18c-.553 0-1 .447-1 1v13h-11v2h11v2.589c-.927-.377-1.939-.589-3-.589-4.072 0-7.436 3.06-7.931 7h-2.069v-10c0-.553-.447-1-1-1h-3v-11c0-2.757 2.243-5 5-5zm30 12h-7v-8h7zm-9 0h-7v-8h7zm-7 2h16v9h-14.765c-.366-.455-.78-.869-1.235-1.235zm2.411 11h14.589c.299 0 .56-.138.743-.346-.338.73-.569 1.517-.673 2.346h-14.139c-.088-.698-.264-1.369-.52-2zm-21.411-7h2v9h-2zm14 16c-3.309 0-6-2.691-6-6s2.691-6 6-6 6 2.691 6 6-2.691 6-6 6zm30 0c-3.309 0-6-2.691-6-6s2.691-6 6-6 6 2.691 6 6-2.691 6-6 6zm12-7v-8h2v8z"/>
        <path d="m43 39h13c.316 0 .613-.149.803-.403.188-.253.246-.581.155-.884l-2.572-8.574c-.384-1.28-1.539-2.139-2.874-2.139h-8.512c-.553 0-1 .447-1 1v10c0 .553.447 1 1 1zm1-10h7.512c.445 0 .83.286.958.713l2.186 7.287h-10.656z"/>
        <path d="m42 41h4v2h-4z"/>
        <path d="m8 39h9c.553 0 1-.447 1-1v-10c0-.553-.447-1-1-1h-9c-.553 0-1 .447-1 1v10c0 .553.447 1 1 1zm1-10h7v8h-7z"/>
        <path d="m22 13h-9v2h8v2h2v-3c0-.553-.447-1-1-1z"/>
        <path d="m44 11c-1.654 0-3 1.346-3 3s1.346 3 3 3 3-1.346 3-3-1.346-3-3-3zm0 4c-.552 0-1-.448-1-1s.448-1 1-1 1 .448 1 1-.448 1-1 1z"/>
    </g>
</svg>
